<?xml version="1.0" encoding="utf-8"?>
<!-- Generator: Adobe Illustrator 16.0.0, SVG Export Plug-In . SVG Version: 6.00 Build 0)  -->
<!DOCTYPE svg PUBLIC "-//W3C//DTD SVG 1.1//EN" "http://www.w3.org/Graphics/SVG/1.1/DTD/svg11.dtd">
<svg version="1.1" xmlns="http://www.w3.org/2000/svg" xmlns:xlink="http://www.w3.org/1999/xlink" x="0px" y="0px"
	 width="597.069px" height="459.568px" viewBox="0 0 597.069 459.568" enable-background="new 0 0 597.069 459.568"
	 xml:space="preserve">
<g>
	<g>
		<rect x="-0.988" width="598.057" height="462.875"/>
		<path d="M298.039,231.437"/>
	</g>
	<g>
		<rect x="8.558" y="3.308" fill="none" width="581.897" height="456.26"/>
		<path fill="none" d="M299.506,231.438"/>
	</g>
	<g>
		<path d="M50.981,214.804c2.572-2.571,2.636-6.321,0.063-8.893l0,0l-10.794-13.3l13.336,10.828l0,0
			c2.573,2.571,6.205,2.542,8.778-0.032l0,0l13.299-10.795l-10.794,13.3l0,0c-2.573,2.573-2.479,6.358,0.094,8.932l0,0
			l10.701,13.184l-13.184-10.701l0,0c-2.573-2.573-6.364-2.666-8.937-0.091l0,0L40.25,228.027L50.981,214.804L50.981,214.804z"/>
		<g>
			<path fill="#434345" d="M74.084,194.24l-9.81,12.086l0,0c-2.338,2.338-2.252,5.777,0.087,8.117l0,0l9.724,11.979l-11.979-9.725
				l0,0c-2.34-2.336-5.782-2.419-8.122-0.081l0,0l-12.081,9.806l9.751-12.013l0,0c2.338-2.34,2.398-5.745,0.058-8.083l0,0
				l-9.809-12.086l12.12,9.837l0,0c2.338,2.34,5.638,2.312,7.976-0.028l0,0L74.084,194.24z"/>
			<path fill="#5D5E60" d="M72.507,195.869l-8.825,10.873l0,0c-2.103,2.102-2.025,5.196,0.078,7.301l0,0l8.747,10.776l-10.778-8.749
				l0,0c-2.103-2.102-5.201-2.178-7.304-0.075l0,0l-10.867,8.823l8.77-10.809l0,0c2.105-2.102,2.157-5.167,0.053-7.27l0,0
				l-8.823-10.872l10.901,8.849l0,0c2.103,2.105,5.073,2.079,7.175-0.022l0,0L72.507,195.869z"/>
			<path fill="#747578" d="M70.928,197.498l-7.838,9.659l0,0c-1.869,1.867-1.801,4.616,0.068,6.485l0,0l7.771,9.573l-9.573-7.769
				l0,0c-1.869-1.871-4.621-1.937-6.49-0.068l0,0l-9.654,7.837l7.792-9.599l0,0c1.869-1.87,1.916-4.592,0.047-6.459l0,0
				l-7.839-9.659l9.685,7.861l0,0c1.869,1.869,4.506,1.846,6.374-0.021l0,0L70.928,197.498z"/>
			<path fill="#898B8D" d="M69.35,199.127l-6.854,8.444l0,0c-1.634,1.634-1.574,4.037,0.06,5.67l0,0l6.794,8.37l-8.37-6.794l0,0
				c-1.634-1.632-4.04-1.69-5.674-0.058l0,0l-8.441,6.853l6.813-8.395l0,0c1.632-1.634,1.674-4.012,0.041-5.646l0,0l-6.854-8.444
				L55.332,206l0,0c1.634,1.632,3.939,1.614,5.573-0.02l0,0L69.35,199.127z"/>
			<path fill="#9EA0A3" d="M67.771,200.756l-5.868,7.23l0,0c-1.4,1.397-1.347,3.456,0.05,4.856l0,0l5.818,7.165l-7.167-5.816l0,0
				c-1.399-1.399-3.458-1.449-4.857-0.05l0,0l-7.228,5.866l5.834-7.186l0,0c1.399-1.397,1.433-3.438,0.034-4.835l0,0l-5.868-7.23
				l7.25,5.884l0,0c1.399,1.399,3.373,1.381,4.772-0.016l0,0L67.771,200.756z"/>
			<path fill="#B5B7B9" d="M66.192,202.385l-4.884,6.016l0,0c-1.164,1.164-1.121,2.877,0.044,4.042l0,0l4.84,5.962l-5.962-4.841l0,0
				c-1.166-1.163-2.88-1.203-4.043-0.041l0,0l-6.016,4.882l4.856-5.979l0,0c1.163-1.165,1.191-2.86,0.027-4.024l0,0l-4.884-6.017
				l6.033,4.898l0,0c1.165,1.165,2.808,1.151,3.971-0.014l0,0L66.192,202.385z"/>
			<path fill="#CCCED0" d="M64.613,204.012l-3.897,4.803l0,0c-0.929,0.929-0.895,2.298,0.034,3.226l0,0l3.863,4.76l-4.759-3.863l0,0
				c-0.929-0.93-2.299-0.963-3.227-0.033l0,0l-4.801,3.896l3.875-4.773l0,0c0.93-0.931,0.952-2.283,0.023-3.212l0,0l-3.897-4.803
				l4.815,3.911l0,0c0.928,0.928,2.241,0.918,3.169-0.012l0,0L64.613,204.012z"/>
			<path fill="#E4E5E6" d="M63.035,205.643l-2.913,3.586l0,0c-0.694,0.694-0.668,1.716,0.026,2.411l0,0l2.887,3.558l-3.558-2.889
				l0,0c-0.693-0.694-1.716-0.717-2.411-0.024l0,0l-3.587,2.913l2.896-3.567l0,0c0.694-0.695,0.71-1.705,0.018-2.401l0,0
				l-2.913-3.586l3.6,2.919l0,0c0.695,0.695,1.674,0.687,2.368-0.008l0,0L63.035,205.643z"/>
		</g>
		<path fill="#FFFFFF" d="M57.05,211.232c0.458-0.46,0.469-1.127,0.009-1.588l0,0l-1.927-2.374l2.382,1.934l0,0
			c0.46,0.46,1.108,0.453,1.567-0.005l0,0l2.375-1.929l-1.928,2.374l0,0c-0.458,0.461-0.442,1.137,0.018,1.595l0,0l1.911,2.356
			l-2.354-1.912l0,0c-0.459-0.458-1.137-0.476-1.595-0.016l0,0l-2.375,1.928L57.05,211.232L57.05,211.232z"/>
	</g>
	<g>
		<path d="M106.859,288.974c0.954-0.953,0.978-2.343,0.024-3.296l0,0l-4.003-4.931l4.944,4.014l0,0
			c0.954,0.952,2.301,0.94,3.254-0.013l0,0l4.931-4.001l-4.003,4.931l0,0c-0.954,0.952-0.918,2.357,0.036,3.31l0,0l3.967,4.887
			l-4.887-3.968l0,0c-0.954-0.952-2.359-0.987-3.313-0.032l0,0l-4.929,4L106.859,288.974L106.859,288.974z"/>
		<g>
			<path fill="#434345" d="M115.425,281.349l-3.637,4.48l0,0c-0.868,0.867-0.835,2.145,0.031,3.009l0,0l3.604,4.441l-4.441-3.605
				l0,0c-0.865-0.865-2.142-0.897-3.008-0.029l0,0l-4.48,3.635l3.616-4.454l0,0c0.866-0.865,0.889-2.129,0.022-2.996l0,0
				l-3.638-4.48l4.493,3.646l0,0c0.868,0.868,2.09,0.857,2.958-0.008l0,0L115.425,281.349z"/>
			<path fill="#5D5E60" d="M114.838,281.952l-3.271,4.032l0,0c-0.781,0.78-0.751,1.929,0.027,2.707l0,0l3.243,3.995l-3.995-3.242
				l0,0c-0.78-0.78-1.928-0.808-2.709-0.027l0,0l-4.028,3.27l3.253-4.006l0,0c0.779-0.781,0.798-1.916,0.02-2.696l0,0l-3.272-4.028
				l4.042,3.278l0,0c0.78,0.779,1.88,0.771,2.66-0.01l0,0L114.838,281.952z"/>
			<path fill="#747578" d="M114.254,282.557l-2.908,3.58l0,0c-0.691,0.691-0.666,1.712,0.028,2.405l0,0l2.88,3.549l-3.549-2.881l0,0
				c-0.693-0.692-1.713-0.719-2.406-0.025l0,0l-3.578,2.906l2.889-3.558l0,0c0.693-0.694,0.709-1.703,0.016-2.396l0,0l-2.905-3.58
				l3.59,2.915l0,0c0.693,0.691,1.671,0.685,2.364-0.008l0,0L114.254,282.557z"/>
			<path fill="#898B8D" d="M113.668,283.16l-2.541,3.134l0,0c-0.606,0.604-0.583,1.494,0.022,2.102l0,0l2.518,3.103l-3.103-2.52l0,0
				c-0.605-0.604-1.498-0.627-2.104-0.021l0,0l-3.13,2.541l2.526-3.112l0,0c0.605-0.605,0.622-1.488,0.017-2.092l0,0l-2.542-3.134
				l3.14,2.549l0,0c0.605,0.607,1.46,0.6,2.064-0.007l0,0L113.668,283.16z"/>
			<path fill="#9EA0A3" d="M113.083,283.765l-2.175,2.68l0,0c-0.521,0.521-0.5,1.281,0.018,1.801l0,0l2.155,2.657l-2.655-2.156l0,0
				c-0.519-0.521-1.283-0.538-1.802-0.02l0,0l-2.678,2.176l2.163-2.665l0,0c0.519-0.519,0.53-1.272,0.013-1.791l0,0l-2.176-2.682
				l2.688,2.182l0,0c0.518,0.52,1.25,0.513,1.77-0.005l0,0L113.083,283.765z"/>
			<path fill="#B5B7B9" d="M112.497,284.368l-1.81,2.231l0,0c-0.431,0.433-0.415,1.065,0.016,1.498l0,0l1.794,2.212l-2.21-1.796l0,0
				c-0.431-0.431-1.068-0.447-1.499-0.015l0,0l-2.23,1.809l1.801-2.215l0,0c0.431-0.435,0.442-1.063,0.011-1.493l0,0l-1.812-2.231
				l2.238,1.817l0,0c0.431,0.431,1.04,0.427,1.472-0.007l0,0L112.497,284.368z"/>
			<path fill="#CCCED0" d="M111.913,284.973l-1.446,1.78l0,0c-0.343,0.345-0.331,0.85,0.014,1.194l0,0l1.432,1.767l-1.765-1.435l0,0
				c-0.345-0.343-0.852-0.354-1.195-0.011l0,0l-1.781,1.443l1.437-1.768l0,0c0.345-0.345,0.353-0.847,0.01-1.191l0,0l-1.446-1.78
				l1.786,1.448l0,0c0.345,0.345,0.831,0.341,1.176-0.002l0,0L111.913,284.973z"/>
			<path fill="#E4E5E6" d="M111.328,285.578l-1.08,1.329l0,0c-0.257,0.258-0.248,0.637,0.008,0.894l0,0l1.072,1.318l-1.32-1.07l0,0
				c-0.257-0.256-0.636-0.268-0.894-0.01l0,0l-1.33,1.08l1.074-1.323l0,0c0.257-0.257,0.264-0.631,0.005-0.889l0,0l-1.079-1.329
				l1.334,1.083l0,0c0.257,0.256,0.62,0.253,0.877-0.005l0,0L111.328,285.578z"/>
		</g>
		<path fill="#FFFFFF" d="M109.108,287.65c0.17-0.172,0.175-0.419,0.005-0.589l0,0l-0.716-0.881l0.884,0.717l0,0
			c0.17,0.17,0.41,0.169,0.582-0.002l0,0l0.879-0.715l-0.714,0.881l0,0c-0.17,0.17-0.165,0.421,0.006,0.591l0,0l0.708,0.872
			l-0.871-0.709l0,0c-0.17-0.168-0.422-0.175-0.593-0.005l0,0l-0.881,0.714L109.108,287.65L109.108,287.65z"/>
	</g>
	<g>
		<path d="M104.854,103.436c3.4-3.399,3.484-8.354,0.085-11.752l0,0L90.675,74.11l17.624,14.306l0,0
			c3.399,3.398,8.198,3.358,11.599-0.041l0,0l17.572-14.266l-14.264,17.574l0,0c-3.4,3.398-3.276,8.402,0.125,11.801l0,0
			l14.139,17.419l-17.419-14.139l0,0c-3.399-3.4-8.407-3.521-11.806-0.122l0,0l-17.569,14.26L104.854,103.436L104.854,103.436z"/>
		<g>
			<path fill="#434345" d="M135.383,76.264L122.42,92.231l0,0c-3.088,3.089-2.975,7.636,0.115,10.726l0,0l12.849,15.828
				l-15.83-12.847l0,0c-3.089-3.089-7.64-3.2-10.729-0.11l0,0l-15.964,12.957l12.884-15.874l0,0
				c3.089-3.089,3.167-7.591,0.078-10.68l0,0L92.861,76.264l16.013,12.998l0,0c3.089,3.089,7.451,3.052,10.541-0.036l0,0
				L135.383,76.264z"/>
			<path fill="#5D5E60" d="M133.298,78.416l-11.66,14.364l0,0c-2.78,2.78-2.678,6.869,0.102,9.647l0,0l11.558,14.239l-14.24-11.558
				l0,0c-2.778-2.778-6.874-2.877-9.652-0.099l0,0l-14.361,11.657l11.592-14.28l0,0c2.778-2.779,2.848-6.827,0.069-9.607l0,0
				L95.045,78.414l14.406,11.694l0,0c2.779,2.779,6.702,2.746,9.482-0.032l0,0L133.298,78.416z"/>
			<path fill="#747578" d="M131.212,80.567l-10.358,12.76l0,0c-2.469,2.469-2.379,6.103,0.091,8.572l0,0l10.267,12.648
				l-12.649-10.268l0,0c-2.47-2.468-6.106-2.557-8.576-0.087l0,0l-12.756,10.355l10.297-12.685l0,0
				c2.469-2.468,2.529-6.065,0.062-8.535l0,0l-10.358-12.76l12.797,10.386l0,0c2.468,2.471,5.954,2.44,8.423-0.029l0,0
				L131.212,80.567z"/>
			<path fill="#898B8D" d="M129.125,82.718l-9.055,11.157l0,0c-2.16,2.16-2.081,5.337,0.078,7.495l0,0l8.977,11.058l-11.06-8.975
				l0,0c-2.158-2.159-5.337-2.236-7.495-0.078l0,0l-11.155,9.053l9.003-11.09l0,0c2.158-2.157,2.213-5.303,0.055-7.463l0,0
				l-9.058-11.157l11.188,9.083l0,0c2.159,2.158,5.206,2.132,7.364-0.026l0,0L129.125,82.718z"/>
			<path fill="#9EA0A3" d="M127.04,84.872l-7.753,9.552l0,0c-1.849,1.849-1.781,4.569,0.066,6.415l0,0l7.687,9.471l-9.469-7.687l0,0
				c-1.848-1.848-4.571-1.914-6.419-0.065l0,0l-9.55,7.751l7.708-9.497l0,0c1.847-1.847,1.895-4.54,0.047-6.389l0,0l-7.754-9.552
				l9.579,7.775l0,0c1.849,1.849,4.458,1.826,6.305-0.022l0,0L127.04,84.872z"/>
			<path fill="#B5B7B9" d="M124.954,87.023l-6.452,7.949l0,0c-1.539,1.538-1.482,3.8,0.057,5.338l0,0l6.396,7.879l-7.879-6.395l0,0
				c-1.538-1.538-3.804-1.592-5.342-0.055l0,0l-7.947,6.449l6.416-7.9l0,0c1.538-1.538,1.575-3.779,0.039-5.317l0,0l-6.454-7.95
				l7.972,6.472l0,0c1.538,1.539,3.709,1.521,5.248-0.02l0,0L124.954,87.023z"/>
			<path fill="#CCCED0" d="M122.868,89.175l-5.151,6.344l0,0c-1.227,1.229-1.182,3.034,0.045,4.262l0,0l5.105,6.291l-6.291-5.107
				l0,0c-1.228-1.226-3.035-1.27-4.262-0.042l0,0l-6.344,5.149l5.12-6.307l0,0c1.227-1.228,1.258-3.017,0.029-4.246l0,0
				l-5.149-6.344l6.362,5.164l0,0c1.229,1.229,2.962,1.214,4.189-0.015l0,0L122.868,89.175z"/>
			<path fill="#E4E5E6" d="M120.783,91.326l-3.849,4.741l0,0c-0.918,0.918-0.884,2.27,0.033,3.187l0,0l3.816,4.699l-4.701-3.815l0,0
				c-0.917-0.916-2.269-0.95-3.185-0.032l0,0l-4.741,3.847l3.826-4.712l0,0c0.917-0.918,0.941-2.255,0.023-3.173l0,0l-3.847-4.741
				l4.754,3.86l0,0c0.917,0.918,2.212,0.907,3.13-0.01l0,0L120.783,91.326z"/>
		</g>
		<path fill="#FFFFFF" d="M112.873,98.714c0.607-0.606,0.624-1.49,0.017-2.097l0,0l-2.547-3.138l3.146,2.554l0,0
			c0.607,0.607,1.463,0.599,2.071-0.008l0,0l3.138-2.545l-2.547,3.138l0,0c-0.607,0.605-0.584,1.5,0.023,2.107l0,0l2.524,3.11
			l-3.111-2.526l0,0c-0.607-0.606-1.501-0.628-2.11-0.02l0,0l-3.135,2.545L112.873,98.714L112.873,98.714z"/>
	</g>
	<g>
		<path d="M192.885,176.785c1.528-1.527,1.565-3.75,0.039-5.277l0,0l-6.402-7.889l7.91,6.423l0,0
			c1.527,1.525,3.682,1.508,5.207-0.02l0,0l7.891-6.404l-6.404,7.889l0,0c-1.527,1.527-1.472,3.771,0.055,5.298l0,0l6.349,7.821
			l-7.821-6.347l0,0c-1.527-1.527-3.774-1.582-5.3-0.055l0,0l-7.887,6.402L192.885,176.785L192.885,176.785z"/>
		<g>
			<path fill="#434345" d="M206.592,164.586l-5.819,7.17l0,0c-1.388,1.386-1.334,3.428,0.05,4.814l0,0l5.769,7.105l-7.107-5.766l0,0
				c-1.386-1.388-3.429-1.438-4.815-0.052l0,0l-7.167,5.818l5.784-7.125l0,0c1.386-1.388,1.422-3.409,0.036-4.794l0,0l-5.819-7.17
				l7.189,5.835l0,0c1.386,1.386,3.344,1.37,4.731-0.016l0,0L206.592,164.586z"/>
			<path fill="#5D5E60" d="M205.656,165.552L200.421,172l0,0c-1.247,1.249-1.202,3.085,0.047,4.332l0,0l5.188,6.393l-6.393-5.189
				l0,0c-1.247-1.247-3.084-1.291-4.333-0.044l0,0l-6.446,5.233l5.203-6.41l0,0c1.249-1.249,1.279-3.065,0.033-4.314l0,0
				l-5.235-6.448l6.466,5.25l0,0c1.248,1.247,3.01,1.232,4.257-0.014l0,0L205.656,165.552z"/>
			<path fill="#747578" d="M204.718,166.519l-4.648,5.728l0,0c-1.109,1.109-1.067,2.739,0.039,3.849l0,0l4.61,5.677l-5.679-4.608
				l0,0c-1.107-1.109-2.741-1.148-3.849-0.039l0,0l-5.726,4.647l4.621-5.694l0,0c1.107-1.108,1.137-2.722,0.029-3.831l0,0
				l-4.65-5.728l5.745,4.662l0,0c1.107,1.109,2.671,1.096,3.779-0.011l0,0L204.718,166.519z"/>
			<path fill="#898B8D" d="M203.783,167.484l-4.066,5.008l0,0c-0.968,0.97-0.933,2.395,0.037,3.364l0,0l4.029,4.963l-4.965-4.029
				l0,0c-0.968-0.968-2.396-1.004-3.365-0.034l0,0l-5.008,4.063l4.042-4.978l0,0c0.97-0.97,0.995-2.38,0.026-3.35l0,0l-4.067-5.008
				l5.023,4.077l0,0c0.97,0.97,2.338,0.957,3.306-0.011l0,0L203.783,167.484z"/>
			<path fill="#9EA0A3" d="M202.847,168.449l-3.481,4.29l0,0c-0.831,0.829-0.8,2.05,0.032,2.879l0,0l3.449,4.253l-4.25-3.452l0,0
				c-0.831-0.829-2.053-0.858-2.882-0.027l0,0l-4.288,3.478l3.46-4.264l0,0c0.829-0.829,0.85-2.038,0.021-2.867l0,0l-3.481-4.288
				l4.301,3.491l0,0c0.831,0.829,2,0.819,2.832-0.011l0,0L202.847,168.449z"/>
			<path fill="#B5B7B9" d="M201.911,169.416l-2.897,3.569l0,0c-0.691,0.691-0.666,1.708,0.024,2.398l0,0l2.873,3.536l-3.536-2.873
				l0,0c-0.691-0.689-1.71-0.714-2.4-0.022l0,0l-3.567,2.895l2.879-3.549l0,0c0.691-0.689,0.708-1.693,0.018-2.385l0,0l-2.897-3.569
				l3.579,2.906l0,0c0.69,0.69,1.665,0.68,2.354-0.01l0,0L201.911,169.416z"/>
			<path fill="#CCCED0" d="M200.973,170.382l-2.311,2.85l0,0c-0.552,0.549-0.531,1.362,0.02,1.911l0,0l2.291,2.824l-2.822-2.292l0,0
				c-0.551-0.55-1.363-0.57-1.916-0.02l0,0l-2.847,2.311l2.298-2.832l0,0c0.55-0.549,0.565-1.354,0.014-1.904l0,0l-2.312-2.849
				l2.856,2.319l0,0c0.552,0.552,1.329,0.544,1.88-0.006l0,0L200.973,170.382z"/>
			<path fill="#E4E5E6" d="M200.037,171.349l-1.728,2.128l0,0c-0.412,0.413-0.395,1.017,0.016,1.43l0,0l1.711,2.111l-2.11-1.715l0,0
				c-0.411-0.411-1.017-0.426-1.43-0.015l0,0l-2.129,1.729l1.72-2.118l0,0c0.41-0.41,0.421-1.012,0.01-1.423l0,0l-1.729-2.128
				l2.136,1.733l0,0c0.413,0.411,0.993,0.406,1.404-0.007l0,0L200.037,171.349z"/>
		</g>
		<path fill="#FFFFFF" d="M196.488,174.666c0.271-0.272,0.278-0.67,0.005-0.941l0,0l-1.143-1.41l1.414,1.146l0,0
			c0.272,0.272,0.657,0.269,0.929-0.003l0,0l1.409-1.142l-1.142,1.409l0,0c-0.275,0.271-0.265,0.672,0.008,0.944l0,0l1.133,1.397
			l-1.396-1.133l0,0c-0.272-0.274-0.675-0.282-0.947-0.01l0,0l-1.409,1.143L196.488,174.666L196.488,174.666z"/>
	</g>
	<g>
		<path d="M298.268,93.073c1.298-1.299,1.333-3.193,0.034-4.492l0,0l-5.452-6.718l6.736,5.468l0,0
			c1.299,1.3,3.133,1.284,4.432-0.016l0,0l6.719-5.452l-5.452,6.718l0,0c-1.301,1.298-1.252,3.211,0.045,4.509l0,0l5.408,6.66
			l-6.66-5.405l0,0c-1.298-1.298-3.215-1.345-4.514-0.047l0,0l-6.713,5.452L298.268,93.073L298.268,93.073z"/>
		<g>
			<path fill="#434345" d="M309.939,82.686l-4.955,6.104l0,0c-1.182,1.182-1.139,2.917,0.042,4.1l0,0l4.913,6.051l-6.052-4.913l0,0
				c-1.18-1.181-2.921-1.223-4.101-0.042l0,0l-6.103,4.955l4.926-6.067l0,0c1.181-1.182,1.211-2.903,0.028-4.083l0,0l-4.954-6.104
				l6.121,4.969l0,0c1.182,1.182,2.85,1.167,4.03-0.013l0,0L309.939,82.686z"/>
			<path fill="#5D5E60" d="M309.14,83.51l-4.457,5.489l0,0c-1.061,1.063-1.023,2.625,0.04,3.689l0,0l4.417,5.444l-5.442-4.42l0,0
				c-1.063-1.061-2.628-1.1-3.689-0.036l0,0l-5.491,4.456l4.434-5.458l0,0c1.063-1.064,1.088-2.612,0.026-3.674l0,0l-4.459-5.489
				l5.509,4.469l0,0c1.061,1.063,2.562,1.048,3.624-0.013l0,0L309.14,83.51z"/>
			<path fill="#747578" d="M308.342,84.331l-3.959,4.879l0,0c-0.944,0.942-0.908,2.332,0.035,3.275l0,0l3.927,4.837l-4.838-3.927
				l0,0c-0.942-0.944-2.332-0.977-3.277-0.032l0,0l-4.877,3.959l3.938-4.85l0,0c0.944-0.944,0.967-2.32,0.023-3.263l0,0
				l-3.959-4.879l4.89,3.97l0,0c0.945,0.944,2.276,0.933,3.221-0.01l0,0L308.342,84.331z"/>
			<path fill="#898B8D" d="M307.545,85.155l-3.462,4.265l0,0c-0.824,0.824-0.793,2.037,0.031,2.864l0,0l3.431,4.226l-4.228-3.431
				l0,0c-0.824-0.827-2.04-0.855-2.866-0.031l0,0l-4.263,3.462l3.442-4.239l0,0c0.826-0.826,0.845-2.027,0.02-2.853l0,0
				l-3.462-4.265l4.278,3.471l0,0c0.826,0.826,1.99,0.816,2.814-0.009l0,0L307.545,85.155z"/>
			<path fill="#9EA0A3" d="M306.749,85.976l-2.965,3.653l0,0c-0.707,0.708-0.68,1.746,0.026,2.452l0,0l2.938,3.621l-3.62-2.939l0,0
				c-0.706-0.706-1.746-0.732-2.452-0.024l0,0l-3.652,2.963l2.947-3.63l0,0c0.708-0.708,0.724-1.734,0.018-2.442l0,0l-2.965-3.653
				l3.661,2.973l0,0c0.707,0.706,1.705,0.698,2.412-0.008l0,0L306.749,85.976z"/>
			<path fill="#B5B7B9" d="M305.951,86.798l-2.466,3.039l0,0c-0.588,0.588-0.567,1.454,0.021,2.041l0,0l2.445,3.013l-3.012-2.445
				l0,0c-0.588-0.589-1.452-0.609-2.042-0.021l0,0l-3.038,2.466l2.453-3.02l0,0c0.588-0.589,0.602-1.444,0.015-2.034l0,0
				l-2.467-3.038l3.047,2.473l0,0c0.588,0.588,1.418,0.582,2.005-0.006l0,0L305.951,86.798z"/>
			<path fill="#CCCED0" d="M305.156,87.623l-1.971,2.425l0,0c-0.47,0.47-0.452,1.16,0.018,1.629l0,0l1.951,2.404l-2.402-1.953l0,0
				c-0.47-0.47-1.161-0.486-1.631-0.016l0,0l-2.426,1.969l1.958-2.411l0,0c0.468-0.47,0.48-1.153,0.011-1.623l0,0l-1.969-2.425
				l2.434,1.974l0,0c0.468,0.47,1.132,0.463,1.599-0.006l0,0L305.156,87.623z"/>
			<path fill="#E4E5E6" d="M304.357,88.443l-1.472,1.813l0,0c-0.35,0.35-0.337,0.866,0.013,1.218l0,0l1.459,1.797l-1.797-1.46l0,0
				c-0.35-0.35-0.866-0.361-1.218-0.011l0,0l-1.812,1.472l1.464-1.802l0,0c0.35-0.352,0.357-0.863,0.006-1.214l0,0l-1.47-1.811
				l1.819,1.474l0,0c0.35,0.352,0.845,0.348,1.194-0.003l0,0L304.357,88.443z"/>
		</g>
		<path fill="#FFFFFF" d="M301.334,91.267c0.229-0.231,0.236-0.57,0.006-0.8l0,0l-0.975-1.201l1.203,0.976l0,0
			c0.231,0.233,0.561,0.23,0.79-0.001l0,0l1.2-0.975l-0.974,1.201l0,0c-0.232,0.23-0.222,0.573,0.009,0.803l0,0l0.965,1.19
			l-1.188-0.965l0,0c-0.231-0.233-0.573-0.24-0.807-0.008l0,0l-1.198,0.973L301.334,91.267L301.334,91.267z"/>
	</g>
	<g>
		<path d="M199.044,263.595c0.637-0.637,0.653-1.563,0.017-2.197l0,0l-2.669-3.287l3.297,2.675l0,0
			c0.637,0.636,1.534,0.626,2.17-0.009l0,0l3.287-2.666l-2.668,3.285l0,0c-0.635,0.637-0.612,1.572,0.022,2.209l0,0l2.646,3.258
			l-3.26-2.646l0,0c-0.635-0.635-1.57-0.657-2.207-0.022l0,0l-3.287,2.669L199.044,263.595L199.044,263.595z"/>
		<g>
			<path fill="#434345" d="M204.755,258.513l-2.425,2.986l0,0c-0.577,0.576-0.556,1.428,0.021,2.005l0,0l2.404,2.961l-2.961-2.402
				l0,0c-0.578-0.578-1.428-0.6-2.004-0.021l0,0l-2.987,2.426l2.411-2.97l0,0c0.578-0.58,0.593-1.422,0.013-1.998l0,0l-2.422-2.986
				l2.994,2.431l0,0c0.578,0.577,1.395,0.57,1.971-0.006l0,0L204.755,258.513z"/>
			<path fill="#5D5E60" d="M204.365,258.917l-2.179,2.687l0,0c-0.521,0.519-0.502,1.284,0.018,1.804l0,0l2.162,2.662l-2.662-2.161
				l0,0c-0.521-0.521-1.286-0.54-1.807-0.019l0,0l-2.685,2.18l2.167-2.67l0,0c0.521-0.52,0.532-1.277,0.013-1.796l0,0l-2.18-2.688
				l2.695,2.186l0,0c0.52,0.521,1.253,0.515,1.773-0.006l0,0L204.365,258.917z"/>
			<path fill="#747578" d="M203.975,259.319l-1.938,2.387l0,0c-0.46,0.46-0.444,1.142,0.018,1.603l0,0l1.92,2.364l-2.366-1.921l0,0
				c-0.461-0.461-1.142-0.476-1.604-0.014l0,0l-2.385,1.937l1.927-2.373l0,0c0.462-0.463,0.473-1.136,0.01-1.596l0,0l-1.937-2.389
				l2.393,1.943l0,0c0.461,0.461,1.114,0.456,1.576-0.005l0,0L203.975,259.319z"/>
			<path fill="#898B8D" d="M203.585,259.72l-1.694,2.087l0,0c-0.403,0.405-0.389,0.999,0.015,1.4l0,0l1.679,2.069l-2.069-1.679l0,0
				c-0.403-0.403-0.998-0.42-1.401-0.013l0,0l-2.085,1.691l1.683-2.074l0,0c0.405-0.404,0.415-0.99,0.009-1.396l0,0l-1.692-2.087
				l2.09,1.698l0,0c0.405,0.405,0.975,0.4,1.378-0.007l0,0L203.585,259.72z"/>
			<path fill="#9EA0A3" d="M203.195,260.122l-1.449,1.788l0,0c-0.347,0.345-0.333,0.854,0.013,1.201l0,0l1.438,1.77l-1.773-1.438
				l0,0c-0.345-0.347-0.854-0.356-1.2-0.014l0,0l-1.786,1.451l1.441-1.776l0,0c0.347-0.347,0.354-0.85,0.01-1.194l0,0l-1.451-1.788
				l1.791,1.456l0,0c0.347,0.345,0.834,0.341,1.179-0.004l0,0L203.195,260.122z"/>
			<path fill="#B5B7B9" d="M202.804,260.525l-1.206,1.486l0,0c-0.287,0.288-0.277,0.711,0.01,0.999l0,0l1.196,1.474l-1.473-1.195
				l0,0c-0.289-0.288-0.711-0.298-0.999-0.011l0,0l-1.487,1.206l1.202-1.477l0,0c0.287-0.288,0.293-0.708,0.006-0.996l0,0
				l-1.208-1.486l1.492,1.209l0,0c0.288,0.29,0.693,0.285,0.981-0.001l0,0L202.804,260.525z"/>
			<path fill="#CCCED0" d="M202.414,260.926l-0.963,1.188l0,0c-0.23,0.229-0.22,0.566,0.01,0.797l0,0l0.954,1.177l-1.177-0.955l0,0
				c-0.228-0.229-0.566-0.238-0.796-0.01l0,0l-1.187,0.965l0.958-1.18l0,0c0.23-0.23,0.235-0.563,0.007-0.794l0,0l-0.965-1.187
				l1.19,0.967l0,0c0.231,0.228,0.554,0.227,0.785-0.004l0,0L202.414,260.926z"/>
			<path fill="#E4E5E6" d="M202.024,261.33l-0.719,0.888l0,0c-0.173,0.171-0.165,0.422,0.006,0.596l0,0l0.712,0.879l-0.879-0.714
				l0,0c-0.171-0.172-0.422-0.179-0.594-0.007l0,0l-0.887,0.719l0.716-0.879l0,0c0.171-0.172,0.175-0.423,0.003-0.594l0,0
				l-0.719-0.888l0.889,0.724l0,0c0.171,0.17,0.415,0.169,0.586-0.003l0,0L202.024,261.33z"/>
		</g>
		<path fill="#FFFFFF" d="M200.544,262.712c0.113-0.113,0.118-0.278,0.003-0.392l0,0l-0.476-0.588l0.589,0.478l0,0
			c0.113,0.113,0.275,0.111,0.389-0.002l0,0l0.586-0.476l-0.476,0.588l0,0c-0.113,0.113-0.11,0.278,0.003,0.394l0,0l0.473,0.581
			l-0.583-0.472l0,0c-0.113-0.114-0.28-0.118-0.395-0.005l0,0l-0.586,0.477L200.544,262.712L200.544,262.712z"/>
	</g>
	<g>
		<path d="M491.973,125.42c0.637-0.636,0.652-1.563,0.017-2.199l0,0l-2.667-3.287l3.295,2.675l0,0
			c0.635,0.637,1.533,0.628,2.168-0.006l0,0l3.287-2.668l-2.666,3.287l0,0c-0.637,0.636-0.614,1.57,0.022,2.207l0,0l2.644,3.258
			l-3.258-2.645l0,0c-0.636-0.636-1.572-0.657-2.208-0.022l0,0l-3.284,2.667L491.973,125.42L491.973,125.42z"/>
		<g>
			<path fill="#434345" d="M497.684,120.337l-2.425,2.987l0,0c-0.578,0.577-0.558,1.427,0.022,2.005l0,0l2.402,2.959l-2.961-2.403
				l0,0c-0.578-0.576-1.429-0.598-2.007-0.02l0,0l-2.985,2.422l2.409-2.968l0,0c0.578-0.578,0.593-1.422,0.015-1.998l0,0
				l-2.424-2.986l2.994,2.43l0,0c0.578,0.578,1.394,0.572,1.972-0.006l0,0L497.684,120.337z"/>
			<path fill="#5D5E60" d="M497.292,120.74l-2.18,2.685l0,0c-0.521,0.521-0.5,1.286,0.019,1.805l0,0l2.161,2.662l-2.662-2.162l0,0
				c-0.521-0.518-1.285-0.538-1.807-0.018l0,0l-2.685,2.18l2.168-2.67l0,0c0.52-0.52,0.532-1.276,0.013-1.797l0,0l-2.181-2.687
				l2.694,2.188l0,0c0.52,0.521,1.255,0.514,1.772-0.006l0,0L497.292,120.74z"/>
			<path fill="#747578" d="M496.904,121.142l-1.938,2.385l0,0c-0.461,0.463-0.445,1.142,0.019,1.605l0,0l1.92,2.364l-2.367-1.918
				l0,0c-0.462-0.461-1.142-0.478-1.603-0.016l0,0l-2.386,1.937l1.926-2.374l0,0c0.461-0.461,0.474-1.133,0.011-1.595l0,0
				l-1.937-2.387l2.392,1.943l0,0c0.463,0.461,1.114,0.455,1.576-0.006l0,0L496.904,121.142z"/>
			<path fill="#898B8D" d="M496.514,121.543l-1.694,2.087l0,0c-0.403,0.403-0.39,0.999,0.013,1.402l0,0l1.682,2.066l-2.068-1.678
				l0,0c-0.404-0.403-0.999-0.416-1.402-0.014l0,0l-2.087,1.693l1.686-2.074l0,0c0.401-0.403,0.411-0.993,0.008-1.396l0,0
				l-1.693-2.087l2.092,1.699l0,0c0.405,0.405,0.976,0.4,1.378-0.005l0,0L496.514,121.543z"/>
			<path fill="#9EA0A3" d="M496.124,121.945l-1.451,1.789l0,0c-0.346,0.345-0.332,0.854,0.014,1.198l0,0l1.438,1.771l-1.771-1.438
				l0,0c-0.347-0.345-0.854-0.358-1.201-0.013l0,0l-1.788,1.451l1.444-1.775l0,0c0.347-0.346,0.354-0.85,0.008-1.195l0,0
				l-1.45-1.789l1.792,1.457l0,0c0.346,0.345,0.834,0.34,1.18-0.006l0,0L496.124,121.945z"/>
			<path fill="#B5B7B9" d="M495.733,122.35l-1.206,1.486l0,0c-0.288,0.288-0.278,0.711,0.01,0.998l0,0l1.196,1.475l-1.473-1.197l0,0
				c-0.289-0.287-0.711-0.299-1-0.01l0,0l-1.487,1.207l1.199-1.479l0,0c0.29-0.288,0.295-0.706,0.01-0.994l0,0l-1.208-1.486
				l1.492,1.209l0,0c0.286,0.287,0.694,0.285,0.98-0.003l0,0L495.733,122.35z"/>
			<path fill="#CCCED0" d="M495.343,122.751l-0.964,1.187l0,0c-0.229,0.23-0.222,0.568,0.008,0.796l0,0l0.956,1.177l-1.176-0.955
				l0,0c-0.231-0.229-0.57-0.238-0.798-0.008l0,0l-1.188,0.963l0.959-1.18l0,0c0.229-0.23,0.234-0.563,0.003-0.793l0,0l-0.962-1.187
				l1.19,0.967l0,0c0.229,0.23,0.554,0.225,0.783-0.005l0,0L495.343,122.751z"/>
			<path fill="#E4E5E6" d="M494.953,123.153l-0.721,0.888l0,0c-0.171,0.171-0.165,0.424,0.007,0.598l0,0l0.714,0.879l-0.879-0.716
				l0,0c-0.172-0.17-0.425-0.176-0.596-0.005l0,0l-0.888,0.719l0.716-0.882l0,0c0.173-0.172,0.177-0.421,0.007-0.593l0,0
				l-0.723-0.886l0.889,0.722l0,0c0.174,0.17,0.415,0.168,0.588-0.003l0,0L494.953,123.153z"/>
		</g>
		<path fill="#FFFFFF" d="M493.473,124.536c0.114-0.113,0.116-0.278,0.003-0.393l0,0L493,123.556l0.589,0.478l0,0
			c0.113,0.115,0.272,0.114,0.387-0.001l0,0l0.587-0.476l-0.477,0.586l0,0c-0.113,0.115-0.11,0.282,0.005,0.395l0,0l0.472,0.583
			l-0.582-0.475l0,0c-0.113-0.112-0.279-0.117-0.394-0.001l0,0L493,125.121L493.473,124.536L493.473,124.536z"/>
	</g>
	<g>
		<path d="M164.288,54.887c0.636-0.636,0.652-1.563,0.016-2.199l0,0l-2.668-3.286l3.297,2.673l0,0
			c0.636,0.636,1.533,0.63,2.168-0.006l0,0l3.287-2.667l-2.667,3.286l0,0c-0.635,0.634-0.614,1.572,0.023,2.207l0,0l2.644,3.26
			l-3.258-2.646l0,0c-0.637-0.635-1.571-0.657-2.207-0.022l0,0l-3.287,2.668L164.288,54.887L164.288,54.887z"/>
		<g>
			<path fill="#434345" d="M169.999,49.804l-2.424,2.986l0,0c-0.578,0.578-0.557,1.43,0.021,2.006l0,0l2.403,2.96l-2.961-2.403l0,0
				c-0.578-0.577-1.428-0.598-2.006-0.021l0,0l-2.986,2.425l2.409-2.968l0,0c0.578-0.578,0.593-1.422,0.017-2l0,0l-2.426-2.986
				l2.996,2.432l0,0c0.576,0.577,1.394,0.57,1.971-0.006l0,0L169.999,49.804z"/>
			<path fill="#5D5E60" d="M169.609,50.207l-2.181,2.687l0,0c-0.52,0.52-0.5,1.284,0.02,1.804l0,0l2.162,2.664l-2.664-2.162l0,0
				c-0.521-0.52-1.286-0.538-1.806-0.02l0,0l-2.686,2.181l2.169-2.672l0,0c0.518-0.518,0.531-1.277,0.011-1.795l0,0l-2.181-2.688
				l2.694,2.188l0,0c0.521,0.52,1.253,0.513,1.773-0.006l0,0L169.609,50.207z"/>
			<path fill="#747578" d="M169.218,50.61l-1.938,2.385l0,0c-0.461,0.461-0.444,1.141,0.018,1.603l0,0l1.92,2.366l-2.365-1.921l0,0
				c-0.463-0.461-1.142-0.478-1.605-0.016l0,0l-2.385,1.938l1.926-2.374l0,0c0.461-0.463,0.473-1.135,0.011-1.596l0,0l-1.937-2.387
				l2.392,1.943l0,0c0.463,0.461,1.114,0.457,1.576-0.006l0,0L169.218,50.61z"/>
			<path fill="#898B8D" d="M168.83,51.012l-1.695,2.085l0,0c-0.403,0.405-0.389,0.999,0.013,1.402l0,0l1.681,2.068l-2.067-1.679l0,0
				c-0.405-0.403-1-0.416-1.402-0.013l0,0l-2.087,1.692l1.684-2.073l0,0c0.403-0.406,0.413-0.992,0.01-1.397l0,0l-1.694-2.085
				l2.094,1.697l0,0c0.403,0.405,0.973,0.4,1.376-0.003l0,0L168.83,51.012z"/>
			<path fill="#9EA0A3" d="M168.438,51.414l-1.451,1.788l0,0c-0.345,0.345-0.333,0.853,0.013,1.198l0,0l1.44,1.773l-1.773-1.438l0,0
				c-0.345-0.347-0.855-0.358-1.201-0.013l0,0l-1.786,1.451l1.443-1.776l0,0c0.346-0.345,0.354-0.85,0.008-1.195l0,0l-1.451-1.788
				l1.792,1.456l0,0c0.347,0.345,0.834,0.34,1.179-0.005l0,0L168.438,51.414z"/>
			<path fill="#B5B7B9" d="M168.048,51.815l-1.207,1.488l0,0c-0.288,0.286-0.278,0.709,0.01,0.999l0,0l1.197,1.472l-1.474-1.195l0,0
				c-0.29-0.287-0.712-0.298-0.999-0.01l0,0l-1.488,1.205l1.201-1.477l0,0c0.287-0.287,0.295-0.708,0.008-0.994l0,0l-1.208-1.488
				l1.491,1.211l0,0c0.288,0.289,0.693,0.284,0.979-0.003l0,0L168.048,51.815z"/>
			<path fill="#CCCED0" d="M167.658,52.218l-0.962,1.187l0,0c-0.231,0.23-0.224,0.567,0.006,0.798l0,0l0.956,1.176l-1.176-0.954l0,0
				c-0.231-0.231-0.568-0.24-0.798-0.01l0,0l-1.187,0.963l0.958-1.181l0,0c0.228-0.228,0.235-0.562,0.005-0.793l0,0l-0.963-1.185
				l1.19,0.965l0,0c0.23,0.229,0.555,0.225,0.784-0.003l0,0L167.658,52.218z"/>
			<path fill="#E4E5E6" d="M167.269,52.622l-0.722,0.885l0,0c-0.17,0.173-0.165,0.424,0.006,0.596l0,0l0.716,0.881l-0.881-0.716l0,0
				c-0.172-0.172-0.424-0.176-0.594-0.005l0,0l-0.889,0.719l0.716-0.881l0,0c0.173-0.173,0.178-0.421,0.006-0.594l0,0l-0.722-0.884
				l0.889,0.719l0,0c0.173,0.172,0.416,0.172,0.586,0l0,0L167.269,52.622z"/>
		</g>
		<path fill="#FFFFFF" d="M165.789,54.002c0.113-0.113,0.115-0.278,0.001-0.392l0,0l-0.476-0.588l0.589,0.478l0,0
			c0.113,0.115,0.274,0.113,0.387,0l0,0l0.586-0.478l-0.476,0.588l0,0c-0.113,0.113-0.11,0.278,0.003,0.394l0,0l0.473,0.581
			l-0.583-0.471l0,0c-0.112-0.115-0.279-0.117-0.392-0.005l0,0l-0.588,0.476L165.789,54.002L165.789,54.002z"/>
	</g>
	<rect y="328.796" width="599.012" height="50.696"/>
	<g>
		<path d="M384.705,123.95c0.635-0.636,0.652-1.563,0.017-2.199l0,0l-2.669-3.287l3.297,2.675l0,0
			c0.635,0.638,1.532,0.628,2.17-0.006l0,0l3.285-2.668l-2.668,3.287l0,0c-0.635,0.636-0.612,1.572,0.024,2.208l0,0l2.644,3.256
			l-3.258-2.644l0,0c-0.636-0.637-1.572-0.658-2.208-0.023l0,0l-3.286,2.667L384.705,123.95L384.705,123.95z"/>
		<g>
			<path fill="#434345" d="M390.416,118.869l-2.426,2.986l0,0c-0.577,0.577-0.557,1.428,0.021,2.004l0,0l2.404,2.962l-2.961-2.403
				l0,0c-0.578-0.578-1.429-0.599-2.007-0.021l0,0l-2.987,2.426l2.409-2.971l0,0c0.578-0.578,0.593-1.42,0.017-1.997l0,0
				l-2.424-2.986l2.993,2.431l0,0c0.578,0.576,1.395,0.57,1.973-0.007l0,0L390.416,118.869z"/>
			<path fill="#5D5E60" d="M390.024,119.27l-2.181,2.687l0,0c-0.519,0.52-0.501,1.286,0.019,1.805l0,0l2.162,2.662l-2.662-2.162l0,0
				c-0.52-0.52-1.285-0.539-1.806-0.018l0,0l-2.688,2.179l2.17-2.67l0,0c0.52-0.52,0.531-1.278,0.013-1.797l0,0l-2.183-2.687
				l2.694,2.186l0,0c0.521,0.521,1.255,0.515,1.774-0.006l0,0L390.024,119.27z"/>
			<path fill="#747578" d="M389.635,119.672l-1.938,2.387l0,0c-0.463,0.461-0.445,1.142,0.019,1.604l0,0l1.92,2.364l-2.365-1.92l0,0
				c-0.464-0.461-1.144-0.478-1.605-0.015l0,0l-2.387,1.935l1.928-2.373l0,0c0.461-0.461,0.473-1.135,0.011-1.595l0,0l-1.938-2.388
				l2.394,1.943l0,0c0.462,0.461,1.114,0.457,1.575-0.006l0,0L389.635,119.672z"/>
			<path fill="#898B8D" d="M389.245,120.075l-1.695,2.086l0,0c-0.401,0.405-0.389,0.999,0.015,1.402l0,0l1.68,2.067l-2.068-1.677
				l0,0c-0.404-0.405-0.997-0.419-1.401-0.015l0,0l-2.086,1.692l1.684-2.074l0,0c0.403-0.403,0.413-0.991,0.009-1.396l0,0
				l-1.692-2.086l2.092,1.697l0,0c0.405,0.406,0.975,0.4,1.377-0.005l0,0L389.245,120.075z"/>
			<path fill="#9EA0A3" d="M388.855,120.477l-1.451,1.788l0,0c-0.347,0.345-0.332,0.855,0.013,1.2l0,0l1.438,1.771l-1.773-1.439l0,0
				c-0.345-0.345-0.854-0.356-1.199-0.011l0,0l-1.788,1.451l1.442-1.776l0,0c0.347-0.345,0.355-0.85,0.01-1.195l0,0l-1.45-1.788
				l1.791,1.456l0,0c0.346,0.345,0.835,0.34,1.18-0.005l0,0L388.855,120.477z"/>
			<path fill="#B5B7B9" d="M388.464,120.88l-1.206,1.486l0,0c-0.288,0.288-0.278,0.711,0.008,0.999l0,0l1.198,1.474l-1.475-1.195
				l0,0c-0.287-0.288-0.711-0.299-0.998-0.011l0,0l-1.487,1.207l1.199-1.479l0,0c0.288-0.288,0.297-0.706,0.008-0.994l0,0
				l-1.206-1.486l1.49,1.209l0,0c0.288,0.29,0.694,0.285,0.981-0.002l0,0L388.464,120.88z"/>
			<path fill="#CCCED0" d="M388.075,121.281l-0.964,1.188l0,0c-0.229,0.229-0.22,0.567,0.01,0.797l0,0l0.954,1.177l-1.176-0.956l0,0
				c-0.231-0.23-0.568-0.238-0.8-0.01l0,0l-1.186,0.965l0.957-1.181l0,0c0.229-0.23,0.236-0.563,0.007-0.793l0,0l-0.964-1.187
				l1.19,0.965l0,0c0.229,0.23,0.554,0.227,0.783-0.003l0,0L388.075,121.281z"/>
			<path fill="#E4E5E6" d="M387.684,121.685l-0.721,0.887l0,0c-0.17,0.172-0.165,0.423,0.007,0.596l0,0l0.714,0.878l-0.881-0.712
				l0,0c-0.17-0.172-0.423-0.178-0.594-0.007l0,0l-0.886,0.719l0.714-0.881l0,0c0.172-0.172,0.176-0.421,0.005-0.593l0,0
				l-0.719-0.886l0.887,0.721l0,0c0.172,0.171,0.415,0.17,0.586-0.002l0,0L387.684,121.685z"/>
		</g>
		<path fill="#FFFFFF" d="M386.205,123.066c0.113-0.112,0.116-0.279,0.003-0.392l0,0l-0.477-0.586l0.588,0.478l0,0
			c0.115,0.113,0.275,0.112,0.388-0.002l0,0l0.586-0.476l-0.477,0.586l0,0c-0.111,0.113-0.108,0.28,0.007,0.395l0,0l0.47,0.582
			l-0.58-0.473l0,0c-0.113-0.113-0.281-0.116-0.395-0.003l0,0l-0.587,0.476L386.205,123.066L386.205,123.066z"/>
	</g>
	<g>
		<path d="M179.303,349.836c0.636-0.637,0.652-1.563,0.016-2.199l0,0l-2.668-3.285l3.297,2.675l0,0
			c0.636,0.637,1.533,0.628,2.169-0.007l0,0l3.287-2.668l-2.668,3.285l0,0c-0.636,0.637-0.612,1.572,0.022,2.209l0,0l2.646,3.258
			l-3.259-2.646l0,0c-0.635-0.637-1.572-0.658-2.209-0.023l0,0l-3.285,2.669L179.303,349.836L179.303,349.836z"/>
		<g>
			<path fill="#434345" d="M185.014,344.755l-2.426,2.985l0,0c-0.578,0.578-0.555,1.429,0.021,2.005l0,0l2.405,2.962l-2.962-2.403
				l0,0c-0.576-0.578-1.428-0.6-2.006-0.021l0,0l-2.988,2.426l2.411-2.97l0,0c0.578-0.579,0.593-1.421,0.016-1.998l0,0l-2.425-2.985
				l2.994,2.431l0,0c0.58,0.576,1.395,0.569,1.972-0.007l0,0L185.014,344.755z"/>
			<path fill="#5D5E60" d="M184.624,345.157l-2.181,2.687l0,0c-0.52,0.52-0.502,1.285,0.018,1.805l0,0l2.163,2.662l-2.663-2.16l0,0
				c-0.52-0.521-1.286-0.539-1.806-0.019l0,0l-2.687,2.181l2.168-2.672l0,0c0.52-0.52,0.533-1.277,0.013-1.797l0,0l-2.181-2.687
				l2.694,2.186l0,0c0.52,0.521,1.253,0.516,1.773-0.005l0,0L184.624,345.157z"/>
			<path fill="#747578" d="M184.233,345.56l-1.938,2.387l0,0c-0.461,0.46-0.445,1.142,0.018,1.602l0,0l1.92,2.365l-2.366-1.92l0,0
				c-0.463-0.462-1.143-0.478-1.603-0.015l0,0l-2.388,1.937l1.927-2.372l0,0c0.463-0.464,0.473-1.137,0.013-1.597l0,0l-1.94-2.389
				l2.395,1.943l0,0c0.461,0.461,1.114,0.456,1.575-0.007l0,0L184.233,345.56z"/>
			<path fill="#898B8D" d="M183.845,345.961l-1.695,2.086l0,0c-0.403,0.404-0.391,1,0.014,1.402l0,0l1.679,2.067l-2.069-1.678l0,0
				c-0.403-0.404-0.998-0.419-1.402-0.015l0,0l-2.085,1.694l1.684-2.074l0,0c0.405-0.405,0.415-0.993,0.01-1.397l0,0l-1.694-2.086
				l2.092,1.697l0,0c0.405,0.406,0.973,0.399,1.378-0.004l0,0L183.845,345.961z"/>
			<path fill="#9EA0A3" d="M183.453,346.363l-1.451,1.788l0,0c-0.345,0.345-0.332,0.854,0.013,1.199l0,0l1.438,1.771l-1.77-1.438
				l0,0c-0.346-0.347-0.856-0.356-1.201-0.013l0,0l-1.788,1.45l1.443-1.776l0,0c0.345-0.345,0.354-0.85,0.008-1.194l0,0
				l-1.451-1.788l1.792,1.456l0,0c0.345,0.345,0.834,0.342,1.179-0.003l0,0L183.453,346.363z"/>
			<path fill="#B5B7B9" d="M183.063,346.766l-1.208,1.486l0,0c-0.287,0.288-0.275,0.711,0.011,0.999l0,0l1.198,1.474l-1.477-1.195
				l0,0c-0.287-0.288-0.709-0.299-0.998-0.011l0,0l-1.488,1.206l1.202-1.479l0,0c0.288-0.286,0.294-0.706,0.006-0.994l0,0
				l-1.206-1.486l1.49,1.211l0,0c0.288,0.288,0.694,0.284,0.981-0.003l0,0L183.063,346.766z"/>
			<path fill="#CCCED0" d="M182.673,347.167l-0.963,1.188l0,0c-0.23,0.229-0.221,0.567,0.008,0.797l0,0l0.956,1.178l-1.177-0.956
				l0,0c-0.229-0.229-0.567-0.237-0.797-0.01l0,0l-1.185,0.966l0.957-1.181l0,0c0.228-0.23,0.234-0.563,0.004-0.794l0,0
				l-0.961-1.187l1.188,0.965l0,0c0.23,0.23,0.554,0.229,0.784-0.002l0,0L182.673,347.167z"/>
			<path fill="#E4E5E6" d="M182.282,347.571l-0.719,0.888l0,0c-0.171,0.172-0.165,0.423,0.006,0.596l0,0l0.712,0.879l-0.877-0.714
				l0,0c-0.172-0.172-0.426-0.178-0.598-0.007l0,0l-0.886,0.72l0.716-0.88l0,0c0.17-0.171,0.177-0.422,0.003-0.594l0,0l-0.719-0.888
				l0.889,0.723l0,0c0.171,0.171,0.413,0.17,0.586-0.002l0,0L182.282,347.571z"/>
		</g>
		<path fill="#FFFFFF" d="M180.802,348.953c0.115-0.112,0.117-0.279,0.003-0.391l0,0l-0.476-0.588l0.589,0.478l0,0
			c0.113,0.113,0.274,0.112,0.387,0l0,0l0.586-0.478l-0.476,0.588l0,0c-0.113,0.111-0.108,0.278,0.005,0.394l0,0l0.471,0.581
			l-0.581-0.471l0,0c-0.113-0.115-0.28-0.118-0.394-0.005l0,0l-0.588,0.476L180.802,348.953L180.802,348.953z"/>
	</g>
	<g>
		<rect y="329.259" fill="#080809" width="599.012" height="50.233"/>
		<rect y="329.72" fill="#121112" width="599.012" height="49.772"/>
		<rect y="330.18" fill="#191919" width="599.012" height="49.313"/>
		<rect y="330.642" fill="#1F1F20" width="599.012" height="48.851"/>
		<rect y="331.103" fill="#252526" width="599.012" height="48.39"/>
		<rect y="331.563" fill="#2A2A2B" width="599.012" height="47.93"/>
		<rect y="332.025" fill="#2F2F30" width="599.012" height="47.468"/>
		<rect y="332.486" fill="#343335" width="599.012" height="47.007"/>
		<rect y="332.948" fill="#383839" width="599.012" height="46.545"/>
		<rect y="333.41" fill="#3D3C3E" width="599.012" height="46.083"/>
		<rect y="333.869" fill="#404041" width="599.012" height="45.624"/>
		<rect y="334.331" fill="#424244" width="599.012" height="45.162"/>
		<rect y="334.792" fill="#444446" width="599.012" height="44.7"/>
		<rect y="335.253" fill="#474648" width="599.012" height="44.239"/>
		<rect y="335.715" fill="#49494B" width="599.012" height="43.777"/>
		<rect y="336.176" fill="#4B4B4D" width="599.012" height="43.316"/>
		<rect y="336.636" fill="#4D4D4F" width="599.012" height="42.856"/>
		<rect y="337.098" fill="#4F4F51" width="599.012" height="42.395"/>
		<rect y="337.559" fill="#515254" width="599.012" height="41.934"/>
		<rect y="338.021" fill="#535456" width="599.012" height="41.472"/>
		<rect y="338.482" fill="#555658" width="599.012" height="41.011"/>
		<rect y="338.944" fill="#57585A" width="599.012" height="40.549"/>
		<rect y="339.404" fill="#595A5C" width="599.012" height="40.089"/>
		<rect y="339.865" fill="#5B5C5E" width="599.012" height="39.628"/>
		<rect y="340.327" fill="#5D5E60" width="599.012" height="39.166"/>
		<rect y="340.787" fill="#5F6062" width="599.012" height="38.706"/>
		<rect y="341.248" fill="#616264" width="599.012" height="38.245"/>
		<rect y="341.709" fill="#636466" width="599.012" height="37.783"/>
		<rect y="342.17" fill="#656668" width="599.012" height="37.322"/>
		<rect y="342.63" fill="#66686A" width="599.012" height="36.862"/>
		<rect y="343.094" fill="#686A6C" width="599.012" height="36.398"/>
		<rect y="343.553" fill="#6A6B6E" width="599.012" height="35.939"/>
		<rect y="344.015" fill="#6C6D70" width="599.012" height="35.478"/>
		<rect y="344.478" fill="#6E6F72" width="599.012" height="35.015"/>
		<rect y="344.938" fill="#6F7173" width="599.012" height="34.555"/>
		<rect y="345.4" fill="#717375" width="599.012" height="34.093"/>
		<rect y="345.861" fill="#737477" width="599.012" height="33.632"/>
		<rect y="346.323" fill="#747679" width="599.012" height="33.17"/>
		<rect y="346.783" fill="#76787A" width="599.012" height="32.71"/>
		<rect y="347.244" fill="#787A7C" width="599.012" height="32.249"/>
		<rect y="347.706" fill="#7A7B7E" width="599.012" height="31.787"/>
		<rect y="348.167" fill="#7B7D80" width="599.012" height="31.326"/>
		<rect y="348.626" fill="#7D7F81" width="599.012" height="30.866"/>
		<rect y="349.088" fill="#7F8183" width="599.012" height="30.404"/>
		<rect y="349.549" fill="#808285" width="599.012" height="29.943"/>
		<rect y="350.013" fill="#828487" width="599.012" height="29.479"/>
		<rect y="350.472" fill="#848688" width="599.012" height="29.021"/>
		<rect y="350.932" fill="#85878A" width="599.012" height="28.561"/>
		<rect y="351.394" fill="#87898C" width="599.012" height="28.099"/>
		<rect y="351.855" fill="#898B8D" width="599.012" height="27.638"/>
		<rect y="352.317" fill="#8A8C8F" width="599.012" height="27.176"/>
		<rect y="352.779" fill="#8C8E91" width="599.012" height="26.714"/>
		<rect y="353.24" fill="#8E9093" width="599.012" height="26.253"/>
		<rect y="353.702" fill="#909294" width="599.012" height="25.791"/>
		<rect y="354.162" fill="#919396" width="599.012" height="25.331"/>
		<rect y="354.623" fill="#939598" width="599.012" height="24.87"/>
		<rect y="355.084" fill="#95979A" width="599.012" height="24.408"/>
		<rect y="355.545" fill="#96989B" width="599.012" height="23.947"/>
		<rect y="356.005" fill="#989A9D" width="599.012" height="23.487"/>
		<rect y="356.467" fill="#9A9C9F" width="599.012" height="23.025"/>
		<rect y="356.928" fill="#9C9EA0" width="599.012" height="22.564"/>
		<rect y="357.39" fill="#9DA0A2" width="599.012" height="22.103"/>
		<rect y="357.85" fill="#9FA1A4" width="599.012" height="21.643"/>
		<rect y="358.311" fill="#A1A3A6" width="599.012" height="21.182"/>
		<rect y="358.773" fill="#A3A5A8" width="599.012" height="20.72"/>
		<rect y="359.236" fill="#A5A7A9" width="599.012" height="20.257"/>
		<rect y="359.696" fill="#A6A9AB" width="599.012" height="19.797"/>
		<rect y="360.156" fill="#A8AAAD" width="599.012" height="19.337"/>
		<rect y="360.619" fill="#AAACAF" width="599.012" height="18.874"/>
		<rect y="361.079" fill="#ACAEB0" width="599.012" height="18.414"/>
		<rect y="361.54" fill="#AEB0B2" width="599.012" height="17.953"/>
		<rect y="362.001" fill="#B0B2B4" width="599.012" height="17.491"/>
		<rect y="362.463" fill="#B1B3B6" width="599.012" height="17.029"/>
		<rect y="362.924" fill="#B3B5B8" width="599.012" height="16.568"/>
		<rect y="363.384" fill="#B5B7B9" width="599.012" height="16.108"/>
		<rect y="363.846" fill="#B7B9BB" width="599.012" height="15.646"/>
		<rect y="364.307" fill="#B9BBBD" width="599.012" height="15.186"/>
		<rect y="364.769" fill="#BBBDBF" width="599.012" height="14.724"/>
		<rect y="365.229" fill="#BDBFC1" width="599.012" height="14.264"/>
		<rect y="365.69" fill="#BFC1C3" width="599.012" height="13.803"/>
		<rect y="366.153" fill="#C0C2C4" width="599.012" height="13.34"/>
		<rect y="366.613" fill="#C2C4C6" width="599.012" height="12.88"/>
		<rect y="367.075" fill="#C4C6C8" width="599.012" height="12.418"/>
		<rect y="367.535" fill="#C6C8CA" width="599.012" height="11.958"/>
		<rect y="367.998" fill="#C8CACC" width="599.012" height="11.495"/>
		<rect y="368.458" fill="#CACCCD" width="599.012" height="11.034"/>
		<rect y="368.918" fill="#CCCDCF" width="599.012" height="10.574"/>
		<rect y="369.38" fill="#CECFD1" width="599.012" height="10.112"/>
		<rect y="369.841" fill="#D0D1D3" width="599.012" height="9.651"/>
		<rect y="370.303" fill="#D2D3D5" width="599.012" height="9.189"/>
		<rect y="370.763" fill="#D4D5D6" width="599.012" height="8.729"/>
		<rect y="371.224" fill="#D5D7D8" width="599.012" height="8.269"/>
		<rect y="371.686" fill="#D7D8DA" width="599.012" height="7.807"/>
		<rect y="372.148" fill="#D9DADC" width="599.012" height="7.345"/>
		<rect y="372.607" fill="#DBDCDD" width="599.012" height="6.886"/>
		<rect y="373.069" fill="#DDDEDF" width="599.012" height="6.424"/>
		<rect y="373.531" fill="#DFE0E1" width="599.012" height="5.962"/>
		<rect y="373.994" fill="#E1E2E3" width="599.012" height="5.499"/>
		<rect y="374.454" fill="#E2E3E5" width="599.012" height="5.039"/>
		<rect y="374.915" fill="#E4E5E6" width="599.012" height="4.578"/>
	</g>
	<rect y="375.367" fill="#E6E7E8" width="599.012" height="4.126"/>
	<rect y="379.493" fill="#58595B" width="597.069" height="83.382"/>
	<path fill="#58595B" d="M298.535,421.182"/>
	<g>
		<rect y="380.885" fill="#5A5B5D" width="597.069" height="81.989"/>
		<rect y="382.279" fill="#5C5D5F" width="597.069" height="80.596"/>
		<rect y="383.673" fill="#5E5F62" width="597.069" height="79.201"/>
		<rect y="385.066" fill="#616264" width="597.069" height="77.809"/>
		<rect y="386.458" fill="#636466" width="597.069" height="76.416"/>
		<rect y="387.852" fill="#656668" width="597.069" height="75.022"/>
		<rect y="389.247" fill="#67686A" width="597.069" height="73.628"/>
		<rect y="390.639" fill="#696A6C" width="597.069" height="72.235"/>
		<rect y="392.033" fill="#6B6C6E" width="597.069" height="70.842"/>
		<rect y="393.427" fill="#6D6E70" width="597.069" height="69.447"/>
		<rect y="394.818" fill="#6E7072" width="597.069" height="68.057"/>
		<rect y="396.212" fill="#707274" width="597.069" height="66.662"/>
		<rect y="397.607" fill="#727476" width="597.069" height="65.268"/>
		<rect y="398.998" fill="#747678" width="597.069" height="63.877"/>
		<rect y="400.392" fill="#76787A" width="597.069" height="62.482"/>
		<rect y="401.786" fill="#787A7C" width="597.069" height="61.089"/>
		<rect y="403.178" fill="#7A7C7E" width="597.069" height="59.696"/>
		<rect y="404.573" fill="#7C7D80" width="597.069" height="58.302"/>
		<rect y="405.966" fill="#7E7F82" width="597.069" height="56.908"/>
		<rect y="407.359" fill="#808184" width="597.069" height="55.516"/>
		<rect y="408.751" fill="#818386" width="597.069" height="54.123"/>
		<rect y="410.146" fill="#838588" width="597.069" height="52.729"/>
		<rect y="411.539" fill="#858789" width="597.069" height="51.336"/>
		<rect y="412.932" fill="#87898B" width="597.069" height="49.942"/>
		<rect y="414.327" fill="#898B8D" width="597.069" height="48.548"/>
		<rect y="415.719" fill="#8A8C8F" width="597.069" height="47.155"/>
		<rect y="417.112" fill="#8C8E91" width="597.069" height="45.763"/>
		<rect y="418.506" fill="#8E9093" width="597.069" height="44.368"/>
		<rect y="419.9" fill="#909295" width="597.069" height="42.975"/>
		<rect y="421.292" fill="#929497" width="597.069" height="41.582"/>
		<rect y="422.687" fill="#949699" width="597.069" height="40.188"/>
		<rect y="424.08" fill="#96989A" width="597.069" height="38.795"/>
		<rect y="425.473" fill="#989A9C" width="597.069" height="37.401"/>
		<rect y="426.866" fill="#9A9C9E" width="597.069" height="36.009"/>
		<rect y="428.26" fill="#9C9EA0" width="597.069" height="34.614"/>
		<rect y="429.651" fill="#9DA0A2" width="597.069" height="33.224"/>
		<rect y="431.046" fill="#9FA2A4" width="597.069" height="31.828"/>
		<rect y="432.439" fill="#A1A4A6" width="597.069" height="30.436"/>
		<rect y="433.832" fill="#A3A6A8" width="597.069" height="29.043"/>
		<rect y="435.226" fill="#A5A8AA" width="597.069" height="27.648"/>
		<rect y="436.621" fill="#A7A9AC" width="597.069" height="26.254"/>
		<rect y="438.011" fill="#A9ABAE" width="597.069" height="24.863"/>
		<rect y="439.406" fill="#ABADB0" width="597.069" height="23.469"/>
		<rect y="440.799" fill="#ADB0B2" width="597.069" height="22.075"/>
		<rect y="442.192" fill="#B0B2B4" width="597.069" height="20.683"/>
		<rect y="443.586" fill="#B2B4B6" width="597.069" height="19.288"/>
		<rect y="444.979" fill="#B3B5B8" width="597.069" height="17.896"/>
		<rect y="446.373" fill="#B6B8BA" width="597.069" height="16.502"/>
		<rect y="447.765" fill="#B8BABC" width="597.069" height="15.109"/>
		<rect y="449.16" fill="#BABCBE" width="597.069" height="13.715"/>
	</g>
	<rect y="450.555" fill="#BCBEC0" width="597.069" height="12.319"/>
	<path fill="#BCBEC0" d="M298.535,456.713"/>
	<path fill="#58595B" d="M597.069,380.885l-8.816-6.545l-8.082,0.733l-8.083,2.94l-8.079-0.735l-6.613-1.469l-2.939,1.469
		l-3.674,0.735l-5.143-0.735l-5.143,2.205h-49.228l-5.143-2.94l-3.674-1.47l-4.407-1.469h-2.939l0.735,2.205h-2.94l-4.408-0.736
		l-1.47,2.205l-2.202,0.735l-3.674-3.674l-0.735,2.938l-2.938-1.469l-6.613-0.736l-5.143,2.205l-2.939-2.205h-3.674
		c0,2.205-2.938,4.41-2.938,4.41h-14.694l-3.675-1.47l-3.672-0.735l-3.674,0.735l-3.674,0.733l-2.938-1.469h-4.409l-0.735,2.205
		l-13.226-1.47h-2.938l-4.409-0.735l-2.938,0.735l-2.206-2.204l0.735-4.409l-3.672-0.735l-2.204,2.939l1.469,2.205l-2.204,0.733
		h-2.938l-4.409,2.94l-4.408-1.47l-3.674-3.674l-2.203-2.939l-5.878-4.407l-3.674,2.938l-3.673,0.733l-4.409-2.937l-2.938,2.937
		l-3.675,2.204l-1.468,5.878l-12.491,0.736l-7.348-1.47l-5.876-2.204l-5.144-1.47l-2.204,3.674l-5.143-5.878l-1.47-5.143
		l-1.469-3.674l-2.939,5.878l-2.204-3.675l-2.94,8.082l-2.202-0.735l-4.411,2.204l-2.938,4.41h-38.939l-8.083-2.94l-2.939-2.938
		l-2.939,2.205l-2.939-2.205l-1.47-3.673l-2.939-2.203l-3.672,2.937h-5.879l-5.141,3.675l-5.877-0.735l-11.021,0.735l-2.94-3.675
		l-5.878,1.471l-6.613,0.733l-6.611,2.204l-1.47,2.94l-3.674-2.94l-3.672,2.205l-3.674-2.205l-2.206-4.408l-7.346-1.468
		l-5.143-3.675l-4.409,2.206l-2.939,0.733l-2.939,2.938l-5.878-0.735l-3.672,2.204l-3.674,2.204l-4.408-1.469l-5.879-3.673
		l-2.937,1.469l-5.145-3.672l-5.878,2.937l-6.611,8.818H40.885l-4.407-5.144l-5.145,0.733l-5.143-2.938l-8.082-1.471l-2.939,2.204
		l-5.143-3.672l-7.348-1.469L0,367.535v13.351H597.069z"/>
	<g>
		<path d="M486,80.788c1.298-1.298,1.332-3.193,0.032-4.492l0,0l-5.452-6.718l6.736,5.468l0,0c1.298,1.299,3.133,1.284,4.434-0.016
			l0,0l6.716-5.452l-5.452,6.718l0,0c-1.298,1.3-1.25,3.211,0.049,4.511l0,0l5.405,6.658l-6.66-5.405l0,0
			c-1.3-1.299-3.214-1.346-4.513-0.047l0,0l-6.715,5.45L486,80.788L486,80.788z"/>
		<g>
			<path fill="#434345" d="M497.67,70.4l-4.955,6.104l0,0c-1.181,1.182-1.139,2.918,0.043,4.098l0,0l4.912,6.053l-6.05-4.913l0,0
				c-1.183-1.181-2.921-1.223-4.104-0.042l0,0l-6.103,4.955l4.926-6.069l0,0c1.182-1.18,1.211-2.9,0.029-4.082l0,0l-4.955-6.104
				l6.122,4.969l0,0c1.181,1.182,2.849,1.166,4.028-0.015l0,0L497.67,70.4z"/>
			<path fill="#5D5E60" d="M496.872,71.225l-4.456,5.489l0,0c-1.063,1.064-1.021,2.625,0.039,3.688l0,0l4.417,5.444l-5.442-4.419
				l0,0c-1.062-1.064-2.626-1.101-3.69-0.037l0,0l-5.488,4.456l4.432-5.458l0,0c1.062-1.062,1.088-2.61,0.025-3.674l0,0
				l-4.457-5.489l5.507,4.467l0,0c1.062,1.063,2.563,1.051,3.623-0.013l0,0L496.872,71.225z"/>
			<path fill="#747578" d="M496.075,72.045l-3.96,4.879l0,0c-0.942,0.942-0.909,2.332,0.035,3.277l0,0l3.925,4.833l-4.835-3.923l0,0
				c-0.943-0.944-2.333-0.979-3.278-0.034l0,0l-4.876,3.958l3.937-4.848l0,0c0.944-0.946,0.967-2.32,0.024-3.265l0,0l-3.961-4.877
				l4.894,3.971l0,0c0.942,0.945,2.274,0.933,3.219-0.012l0,0L496.075,72.045z"/>
			<path fill="#898B8D" d="M495.278,72.868l-3.461,4.267l0,0c-0.824,0.824-0.796,2.039,0.028,2.863l0,0l3.433,4.228l-4.228-3.431
				l0,0c-0.825-0.826-2.04-0.855-2.866-0.031l0,0l-4.263,3.464l3.442-4.241l0,0c0.824-0.826,0.845-2.029,0.02-2.853l0,0
				l-3.462-4.265l4.277,3.472l0,0c0.824,0.824,1.988,0.816,2.814-0.008l0,0L495.278,72.868z"/>
			<path fill="#9EA0A3" d="M494.482,73.692l-2.965,3.651l0,0c-0.708,0.706-0.682,1.746,0.024,2.452l0,0l2.94,3.62l-3.621-2.938l0,0
				c-0.706-0.706-1.747-0.73-2.453-0.024l0,0l-3.651,2.963l2.947-3.63l0,0c0.706-0.708,0.724-1.736,0.018-2.442l0,0l-2.965-3.651
				l3.661,2.973l0,0c0.708,0.705,1.704,0.696,2.409-0.008l0,0L494.482,73.692z"/>
			<path fill="#B5B7B9" d="M493.683,74.513l-2.468,3.039l0,0c-0.588,0.588-0.564,1.454,0.023,2.042l0,0l2.444,3.012l-3.013-2.445
				l0,0c-0.587-0.588-1.453-0.609-2.041-0.021l0,0l-3.039,2.466l2.453-3.021l0,0c0.588-0.587,0.603-1.444,0.013-2.032l0,0
				l-2.464-3.038l3.046,2.473l0,0c0.588,0.589,1.42,0.582,2.006-0.006l0,0L493.683,74.513z"/>
			<path fill="#CCCED0" d="M492.885,75.336l-1.969,2.427l0,0c-0.47,0.468-0.45,1.159,0.02,1.629l0,0l1.949,2.404l-2.403-1.953l0,0
				c-0.47-0.47-1.161-0.486-1.63-0.016l0,0l-2.425,1.969l1.956-2.411l0,0c0.47-0.469,0.481-1.154,0.012-1.622l0,0l-1.969-2.427
				l2.434,1.975l0,0c0.468,0.47,1.13,0.465,1.602-0.005l0,0L492.885,75.336z"/>
			<path fill="#E4E5E6" d="M492.09,76.16l-1.473,1.812l0,0c-0.351,0.352-0.338,0.868,0.014,1.218l0,0l1.457,1.796l-1.796-1.459l0,0
				c-0.352-0.35-0.868-0.361-1.219-0.011l0,0l-1.813,1.47l1.463-1.801l0,0c0.353-0.351,0.359-0.863,0.009-1.213l0,0l-1.472-1.812
				l1.818,1.473l0,0c0.352,0.352,0.846,0.348,1.195-0.001l0,0L492.09,76.16z"/>
		</g>
		<path fill="#FFFFFF" d="M489.065,78.984c0.232-0.233,0.238-0.572,0.005-0.803l0,0l-0.973-1.2l1.203,0.977l0,0
			c0.233,0.233,0.559,0.229,0.792-0.002l0,0l1.199-0.973l-0.975,1.198l0,0c-0.229,0.231-0.224,0.573,0.01,0.807l0,0l0.965,1.188
			l-1.189-0.965l0,0c-0.232-0.231-0.573-0.239-0.805-0.008l0,0l-1.2,0.973L489.065,78.984L489.065,78.984z"/>
	</g>
	<g>
		<path d="M551.472,39.164c0.952-0.954,0.978-2.343,0.022-3.297l0,0l-4.003-4.931l4.945,4.013l0,0
			c0.955,0.954,2.299,0.942,3.255-0.011l0,0l4.929-4.001l-4.003,4.931l0,0c-0.952,0.954-0.918,2.356,0.037,3.312l0,0l3.966,4.885
			l-4.887-3.966l0,0c-0.954-0.954-2.359-0.989-3.313-0.036l0,0l-4.929,4.001L551.472,39.164L551.472,39.164z"/>
		<g>
			<path fill="#434345" d="M560.036,31.539l-3.637,4.482l0,0c-0.866,0.866-0.834,2.141,0.032,3.007l0,0l3.604,4.441l-4.438-3.606
				l0,0c-0.868-0.865-2.146-0.895-3.012-0.029l0,0l-4.478,3.635l3.614-4.454l0,0c0.866-0.866,0.889-2.129,0.022-2.996l0,0
				l-3.637-4.48l4.49,3.646l0,0c0.868,0.87,2.092,0.858,2.958-0.01l0,0L560.036,31.539z"/>
			<path fill="#5D5E60" d="M559.452,32.145l-3.271,4.029l0,0c-0.78,0.78-0.751,1.927,0.026,2.707l0,0l3.243,3.995l-3.994-3.242l0,0
				c-0.779-0.78-1.928-0.808-2.708-0.027l0,0l-4.028,3.27l3.251-4.006l0,0c0.78-0.78,0.8-1.916,0.02-2.696l0,0l-3.271-4.029
				l4.041,3.279l0,0c0.779,0.779,1.882,0.771,2.661-0.008l0,0L559.452,32.145z"/>
			<path fill="#747578" d="M558.866,32.749l-2.907,3.577l0,0c-0.691,0.694-0.667,1.713,0.026,2.408l0,0l2.881,3.547l-3.55-2.88l0,0
				c-0.693-0.693-1.713-0.717-2.404-0.026l0,0l-3.58,2.906l2.889-3.559l0,0c0.692-0.693,0.709-1.7,0.018-2.395l0,0l-2.906-3.579
				l3.59,2.913l0,0c0.692,0.691,1.672,0.685,2.363-0.008l0,0L558.866,32.749z"/>
			<path fill="#898B8D" d="M558.281,33.353l-2.541,3.128l0,0c-0.605,0.605-0.584,1.498,0.021,2.104l0,0l2.52,3.102l-3.104-2.52l0,0
				c-0.605-0.604-1.496-0.626-2.102-0.019l0,0l-3.13,2.539l2.526-3.112l0,0c0.605-0.605,0.621-1.488,0.015-2.094l0,0l-2.541-3.128
				l3.14,2.547l0,0c0.605,0.606,1.461,0.598,2.066-0.008l0,0L558.281,33.353z"/>
			<path fill="#9EA0A3" d="M557.696,33.955l-2.176,2.68l0,0c-0.519,0.52-0.499,1.282,0.02,1.8l0,0l2.156,2.657l-2.658-2.157l0,0
				c-0.519-0.52-1.283-0.538-1.801-0.02l0,0l-2.678,2.176l2.163-2.665l0,0c0.518-0.518,0.53-1.274,0.013-1.791l0,0l-2.176-2.681
				l2.688,2.183l0,0c0.518,0.518,1.25,0.512,1.768-0.006l0,0L557.696,33.955z"/>
			<path fill="#B5B7B9" d="M557.11,34.557l-1.811,2.231l0,0c-0.431,0.432-0.414,1.067,0.017,1.498l0,0l1.794,2.211l-2.212-1.795l0,0
				c-0.431-0.431-1.065-0.445-1.496-0.015l0,0l-2.231,1.81l1.799-2.218l0,0c0.433-0.431,0.444-1.059,0.012-1.491l0,0l-1.811-2.229
				l2.238,1.815l0,0c0.431,0.432,1.039,0.427,1.47-0.005l0,0L557.11,34.557z"/>
			<path fill="#CCCED0" d="M556.524,35.163l-1.444,1.78l0,0c-0.344,0.345-0.332,0.852,0.013,1.195l0,0l1.434,1.767l-1.768-1.433l0,0
				c-0.343-0.345-0.85-0.356-1.194-0.013l0,0l-1.779,1.446l1.436-1.77l0,0c0.345-0.345,0.354-0.847,0.01-1.192l0,0l-1.445-1.78
				l1.786,1.449l0,0c0.343,0.345,0.83,0.34,1.174-0.003l0,0L556.524,35.163z"/>
			<path fill="#E4E5E6" d="M555.941,35.765l-1.082,1.331l0,0c-0.257,0.259-0.246,0.636,0.012,0.894l0,0l1.07,1.318l-1.321-1.07l0,0
				c-0.256-0.257-0.635-0.267-0.893-0.008l0,0l-1.329,1.079l1.072-1.321l0,0c0.259-0.259,0.266-0.631,0.006-0.891l0,0l-1.078-1.331
				l1.333,1.083l0,0c0.257,0.257,0.621,0.256,0.879-0.003l0,0L555.941,35.765z"/>
		</g>
		<path fill="#FFFFFF" d="M553.721,37.838c0.168-0.17,0.173-0.416,0.003-0.586l0,0l-0.714-0.882l0.883,0.717l0,0
			c0.17,0.172,0.411,0.168,0.582-0.001l0,0l0.878-0.716l-0.714,0.882l0,0c-0.169,0.17-0.164,0.419,0.006,0.591l0,0l0.708,0.871
			l-0.871-0.708l0,0c-0.17-0.17-0.421-0.177-0.593-0.007l0,0l-0.879,0.714L553.721,37.838L553.721,37.838z"/>
	</g>
	<circle fill="#FFFFFF" cx="477.234" cy="228.729" r="65.461"/>
	<path fill="#58595B" d="M477.235,228.729"/>
	<path fill="#58595B" d="M477.235,228.729"/>
	<g>
		
			<ellipse transform="matrix(-0.9304 -0.3666 0.3666 -0.9304 837.9177 616.8377)" fill="#F8F8F9" cx="477.536" cy="228.847" rx="65.137" ry="65.322"/>
		
			<ellipse transform="matrix(-0.9304 -0.3666 0.3666 -0.9304 838.4579 617.176)" fill="#F3F4F4" cx="477.837" cy="228.966" rx="64.813" ry="65.187"/>
		
			<ellipse transform="matrix(-0.9304 -0.3666 0.3666 -0.9304 839.002 617.5118)" fill="#EFF0F0" cx="478.139" cy="229.086" rx="64.489" ry="65.052"/>
		
			<ellipse transform="matrix(-0.9304 -0.3666 0.3666 -0.9304 839.5371 617.8532)" fill="#EBECEC" cx="478.44" cy="229.204" rx="64.165" ry="64.913"/>
		
			<ellipse transform="matrix(-0.9304 -0.3666 0.3666 -0.9304 840.0759 618.1934)" fill="#E7E8E9" cx="478.742" cy="229.323" rx="63.841" ry="64.777"/>
		
			<ellipse transform="matrix(-0.9304 -0.3666 0.3666 -0.9304 840.6108 618.5372)" fill="#E2E3E5" cx="479.044" cy="229.441" rx="63.516" ry="64.639"/>
		
			<ellipse transform="matrix(-0.9304 -0.3666 0.3666 -0.9304 841.1513 618.8731)" fill="#DEDFE1" cx="479.344" cy="229.56" rx="63.193" ry="64.503"/>
		
			<ellipse transform="matrix(-0.9304 -0.3666 0.3666 -0.9304 841.6903 619.2121)" fill="#DADBDD" cx="479.646" cy="229.679" rx="62.869" ry="64.366"/>
		
			<ellipse transform="matrix(-0.9304 -0.3666 0.3666 -0.9304 842.2252 619.5548)" fill="#D6D7D9" cx="479.947" cy="229.797" rx="62.545" ry="64.228"/>
		
			<ellipse transform="matrix(-0.9304 -0.3666 0.3666 -0.9304 842.7655 619.893)" fill="#D2D3D5" cx="480.249" cy="229.917" rx="62.221" ry="64.092"/>
		
			<ellipse transform="matrix(-0.9304 -0.3666 0.3666 -0.9304 843.3046 620.2319)" fill="#CECFD1" cx="480.55" cy="230.035" rx="61.897" ry="63.956"/>
		<path fill="#CACBCD" d="M423.565,207.58c12.923-32.791,49.046-49.269,80.684-36.8c31.637,12.466,46.811,49.158,33.889,81.949
			c-12.923,32.793-49.044,49.27-80.684,36.8C425.815,277.064,410.643,240.372,423.565,207.58z"/>
		
			<ellipse transform="matrix(-0.9304 -0.3666 0.3666 -0.9304 844.3802 620.9104)" fill="#C5C7C9" cx="481.152" cy="230.273" rx="61.25" ry="63.683"/>
		
			<ellipse transform="matrix(-0.9304 -0.3666 0.3666 -0.9304 844.9147 621.2545)" fill="#C1C3C5" cx="481.454" cy="230.391" rx="60.926" ry="63.544"/>
		
			<ellipse transform="matrix(-0.9304 -0.3666 0.3666 -0.9304 845.4551 621.5926)" fill="#BDBFC1" cx="481.755" cy="230.51" rx="60.602" ry="63.409"/>
		
			<ellipse transform="matrix(-0.9304 -0.3666 0.3666 -0.9304 845.9943 621.9304)" fill="#B9BBBD" cx="482.056" cy="230.629" rx="60.278" ry="63.271"/>
		
			<ellipse transform="matrix(-0.9304 -0.3666 0.3666 -0.9304 846.5292 622.2721)" fill="#B5B7B9" cx="482.357" cy="230.747" rx="59.955" ry="63.134"/>
		
			<ellipse transform="matrix(-0.9304 -0.3666 0.3666 -0.9304 847.0734 622.6099)" fill="#B1B3B5" cx="482.66" cy="230.867" rx="59.629" ry="62.999"/>
		
			<ellipse transform="matrix(-0.9304 -0.3666 0.3666 -0.9304 847.6085 622.9503)" fill="#ADAFB1" cx="482.96" cy="230.985" rx="59.306" ry="62.86"/>
		
			<ellipse transform="matrix(-0.9304 -0.3666 0.3666 -0.9304 848.1448 623.2911)" fill="#A8ABAD" cx="483.262" cy="231.104" rx="58.983" ry="62.725"/>
		
			<ellipse transform="matrix(-0.9304 -0.3666 0.3666 -0.9304 848.6837 623.6301)" fill="#A5A7A9" cx="483.563" cy="231.222" rx="58.659" ry="62.588"/>
		
			<ellipse transform="matrix(-0.9304 -0.3666 0.3666 -0.9304 849.2223 623.9716)" fill="#A1A3A5" cx="483.865" cy="231.341" rx="58.334" ry="62.451"/>
		<path fill="#9D9FA2" d="M430.195,210.193c12.617-32.019,47.01-48.454,76.818-36.708c29.805,11.746,43.739,47.225,31.124,79.243
			c-12.617,32.021-47.011,48.454-76.817,36.708S417.579,242.211,430.195,210.193z"/>
		
			<ellipse transform="matrix(-0.9304 -0.3666 0.3666 -0.9304 850.3022 624.6472)" fill="#999B9E" cx="484.467" cy="231.579" rx="57.686" ry="62.176"/>
		
			<ellipse transform="matrix(-0.9304 -0.3666 0.3666 -0.9304 850.8384 624.988)" fill="#95979A" cx="484.769" cy="231.698" rx="57.363" ry="62.04"/>
		
			<ellipse transform="matrix(-0.9304 -0.3666 0.3666 -0.9304 851.3776 625.3269)" fill="#919396" cx="485.07" cy="231.817" rx="57.039" ry="61.904"/>
		
			<ellipse transform="matrix(-0.9304 -0.3666 0.3666 -0.9304 851.9164 625.6671)" fill="#8D9092" cx="485.372" cy="231.936" rx="56.715" ry="61.767"/>
		
			<ellipse transform="matrix(-0.9304 -0.3666 0.3666 -0.9304 852.4526 626.0081)" fill="#8A8C8E" cx="485.673" cy="232.054" rx="56.391" ry="61.631"/>
		
			<ellipse transform="matrix(-0.9304 -0.3666 0.3666 -0.9304 852.9916 626.3469)" fill="#86888B" cx="485.974" cy="232.173" rx="56.067" ry="61.493"/>
		
			<ellipse transform="matrix(-0.9304 -0.3666 0.3666 -0.9304 853.526 626.6902)" fill="#828487" cx="486.276" cy="232.291" rx="55.743" ry="61.355"/>
		
			<ellipse transform="matrix(-0.9304 -0.3666 0.3666 -0.9304 854.0667 627.028)" fill="#7F8183" cx="486.577" cy="232.41" rx="55.419" ry="61.219"/>
		
			<ellipse transform="matrix(-0.9304 -0.3666 0.3666 -0.9304 854.6058 627.3669)" fill="#7B7D7F" cx="486.878" cy="232.529" rx="55.095" ry="61.082"/>
		
			<ellipse transform="matrix(-0.9304 -0.3666 0.3666 -0.9304 855.1403 627.7089)" fill="#77797B" cx="487.18" cy="232.647" rx="54.771" ry="60.944"/>
		
			<ellipse transform="matrix(-0.9304 -0.3666 0.3666 -0.9304 855.6857 628.0436)" fill="#747578" cx="487.481" cy="232.767" rx="54.447" ry="60.809"/>
		
			<ellipse transform="matrix(-0.9304 -0.3666 0.3666 -0.9304 856.2206 628.3842)" fill="#707174" cx="487.782" cy="232.885" rx="54.124" ry="60.673"/>
		
			<ellipse transform="matrix(-0.9304 -0.3666 0.3666 -0.9304 856.7543 628.729)" fill="#6C6D70" cx="488.084" cy="233.003" rx="53.799" ry="60.536"/>
		
			<ellipse transform="matrix(-0.9304 -0.3666 0.3666 -0.9304 857.3007 629.0607)" fill="#68696B" cx="488.384" cy="233.123" rx="53.476" ry="60.398"/>
		
			<ellipse transform="matrix(-0.9304 -0.3666 0.3666 -0.9304 857.8362 629.4031)" fill="#646567" cx="488.686" cy="233.242" rx="53.152" ry="60.262"/>
		
			<ellipse transform="matrix(-0.9304 -0.3666 0.3666 -0.9304 858.3698 629.7481)" fill="#606163" cx="488.988" cy="233.36" rx="52.827" ry="60.124"/>
		
			<ellipse transform="matrix(-0.9304 -0.3666 0.3666 -0.9304 858.9091 630.0869)" fill="#5B5C5F" cx="489.29" cy="233.479" rx="52.504" ry="59.987"/>
		
			<ellipse transform="matrix(-0.9304 -0.3666 0.3666 -0.9304 859.4507 630.4217)" fill="#57585A" cx="489.59" cy="233.598" rx="52.181" ry="59.851"/>
		
			<ellipse transform="matrix(-0.9304 -0.3666 0.3666 -0.9304 859.9895 630.762)" fill="#535355" cx="489.892" cy="233.717" rx="51.856" ry="59.715"/>
		
			<ellipse transform="matrix(-0.9304 -0.3666 0.3666 -0.9304 860.5239 631.1041)" fill="#4E4E50" cx="490.193" cy="233.835" rx="51.533" ry="59.579"/>
		
			<ellipse transform="matrix(-0.9304 -0.3666 0.3666 -0.9304 861.0638 631.4447)" fill="#4A4A4C" cx="490.495" cy="233.954" rx="51.208" ry="59.441"/>
		
			<ellipse transform="matrix(-0.9304 -0.3666 0.3666 -0.9304 861.6041 631.7805)" fill="#454547" cx="490.795" cy="234.073" rx="50.885" ry="59.305"/>
		
			<ellipse transform="matrix(-0.9304 -0.3666 0.3666 -0.9304 862.1378 632.1243)" fill="#404041" cx="491.097" cy="234.191" rx="50.561" ry="59.167"/>
		
			<ellipse transform="matrix(-0.9304 -0.3666 0.3666 -0.9304 862.6788 632.4619)" fill="#373738" cx="491.398" cy="234.31" rx="50.237" ry="59.03"/>
		
			<ellipse transform="matrix(-0.9304 -0.3666 0.3666 -0.9304 863.2172 632.8036)" fill="#2D2D2E" cx="491.701" cy="234.429" rx="49.912" ry="58.894"/>
		
			<ellipse transform="matrix(-0.9304 -0.3666 0.3666 -0.9304 863.7521 633.143)" fill="#222122" cx="492.001" cy="234.547" rx="49.589" ry="58.758"/>
		
			<ellipse transform="matrix(-0.9304 -0.3666 0.3666 -0.9304 864.2932 633.4804)" fill="#131314" cx="492.302" cy="234.667" rx="49.265" ry="58.62"/>
	</g>
	
		<ellipse transform="matrix(-0.9304 -0.3666 0.3666 -0.9304 864.8321 633.8207)" cx="492.604" cy="234.785" rx="48.941" ry="58.485"/>
	<path d="M489.833,233.693"/>
	<path d="M477.235,228.729"/>
	<path d="M424.151,190.339c-54.429-18.548-94.085-27.436-96.755-20.656c-3.577,9.077,60.61,42.869,143.362,75.48
		c10.666,4.203,21.118,8.18,31.243,11.9l-1.025,3.097c-10.253-3.868-20.728-7.907-31.359-12.098
		c-112.652-44.391-200.565-89.034-196.356-99.713c3.454-8.763,67.984,8.111,153.265,38.977c0,0-0.669,0.821-1.281,1.618
		C424.703,189.651,424.151,190.339,424.151,190.339z"/>
	<path d="M477.235,228.729"/>
	<g>
		<path fill="#1C1B1C" d="M500.284,256.433l-1.003,3.021c-10.175-3.836-20.559-7.847-31.094-12.008
			c-110.373-43.556-198.714-88.18-194.483-98.92c3.454-8.765,68.23,8.237,152.8,38.821c0,0-0.651,0.798-1.26,1.597
			c-0.539,0.708-1.075,1.378-1.075,1.378c-54.03-18.443-94.438-27.551-97.109-20.77c-3.575,9.076,60.207,42.723,142.262,75.059
			C479.896,248.777,490.243,252.746,500.284,256.433z"/>
		<path fill="#2F2E2F" d="M498.565,255.8l-0.98,2.95c-10.097-3.808-20.388-7.79-30.824-11.921
			c-108.098-42.719-196.868-87.325-192.611-98.128c3.454-8.765,68.477,8.363,152.335,38.668c0,0-0.633,0.776-1.24,1.574
			c-0.538,0.709-1.058,1.363-1.058,1.363c-53.633-18.343-94.792-27.669-97.463-20.888c-3.578,9.074,59.803,42.579,141.159,74.638
			C478.367,248.19,488.609,252.145,498.565,255.8z"/>
		<path fill="#3E3D3F" d="M496.847,255.168l-0.958,2.877c-10.019-3.775-20.22-7.731-30.555-11.833
			c-105.821-41.881-195.023-86.471-190.742-97.336c3.454-8.763,68.725,8.491,151.871,38.515c0,0-0.616,0.753-1.22,1.553
			c-0.534,0.711-1.038,1.347-1.038,1.347c-53.236-18.241-95.148-27.786-97.82-21.006c-3.577,9.076,59.401,42.437,140.062,74.219
			C476.838,247.6,486.977,251.546,496.847,255.168z"/>
		<path fill="#464648" d="M495.131,254.537l-0.939,2.805c-9.94-3.745-20.051-7.675-30.288-11.744
			c-103.541-41.046-193.173-85.618-188.866-96.546c3.452-8.763,68.969,8.619,151.406,38.364c0,0-0.598,0.729-1.2,1.529
			c-0.532,0.711-1.021,1.331-1.021,1.331c-52.837-18.139-95.5-27.902-98.172-21.123c-3.579,9.078,58.996,42.291,138.958,73.8
			C475.312,247.012,485.342,250.949,495.131,254.537z"/>
		<path fill="#4D4E50" d="M493.412,253.906l-0.917,2.729c-9.861-3.714-19.881-7.616-30.019-11.655
			c-101.267-40.21-191.326-84.763-186.994-95.754c3.454-8.765,69.219,8.747,150.94,38.212c0,0-0.58,0.706-1.179,1.506
			c-0.532,0.711-1.004,1.316-1.004,1.316c-52.44-18.038-95.856-28.019-98.526-21.239c-3.577,9.076,58.595,42.144,137.857,73.378
			C473.783,246.424,483.71,250.349,493.412,253.906z"/>
		<path fill="#555557" d="M491.694,253.272l-0.896,2.659c-9.782-3.683-19.711-7.559-29.749-11.569
			c-98.989-39.372-189.479-83.908-185.124-94.961c3.454-8.764,69.467,8.875,150.478,38.06c0,0-0.561,0.682-1.159,1.483
			c-0.529,0.712-0.986,1.3-0.986,1.3c-52.042-17.935-96.209-28.137-98.881-21.356c-3.577,9.076,58.191,41.999,136.757,72.959
			C472.256,245.836,482.075,249.75,491.694,253.272z"/>
		<path fill="#5B5C5F" d="M489.977,252.641l-0.876,2.584c-9.702-3.651-19.541-7.5-29.479-11.48
			c-96.712-38.536-187.631-83.051-183.251-94.167c3.452-8.765,69.713,9.001,150.012,37.904c0,0-0.544,0.659-1.139,1.462
			c-0.528,0.712-0.969,1.286-0.969,1.286c-51.644-17.833-96.563-28.255-99.235-21.474c-3.577,9.076,57.787,41.855,135.655,72.539
			C470.729,245.25,480.443,249.153,489.977,252.641z"/>
		<path fill="#626365" d="M488.257,252.007l-0.852,2.512c-9.625-3.619-19.372-7.438-29.211-11.39
			c-94.437-37.7-185.785-82.2-181.38-93.377c3.454-8.765,69.958,9.129,149.548,37.752c0,0-0.526,0.635-1.119,1.439
			c-0.526,0.712-0.952,1.268-0.952,1.268c-51.243-17.73-96.917-28.369-99.589-21.589c-3.575,9.076,57.386,41.709,134.553,72.118
			C469.201,244.662,478.809,248.554,488.257,252.007z"/>
		<path fill="#686A6C" d="M486.541,251.376l-0.832,2.438c-9.547-3.589-19.204-7.382-28.941-11.303
			c-92.16-36.863-183.938-81.345-179.509-92.587c3.456-8.763,70.207,9.259,149.083,37.602c0,0-0.507,0.612-1.098,1.417
			c-0.524,0.714-0.935,1.251-0.935,1.251c-50.845-17.625-97.271-28.485-99.943-21.706c-3.576,9.077,56.982,41.564,133.453,71.699
			C467.673,244.074,477.175,247.955,486.541,251.376z"/>
		<path fill="#6E7072" d="M484.822,250.743l-0.81,2.366c-9.468-3.556-19.033-7.324-28.674-11.215
			c-89.883-36.026-182.09-80.488-177.635-91.792c3.454-8.765,70.453,9.385,148.619,37.448c0,0-0.489,0.587-1.078,1.394
			c-0.521,0.714-0.917,1.237-0.917,1.237c-50.448-17.526-97.626-28.604-100.296-21.824c-3.577,9.077,56.576,41.42,132.349,71.28
			C466.145,243.484,475.543,247.356,484.822,250.743z"/>
		<path fill="#747679" d="M483.103,250.113l-0.788,2.29c-9.389-3.525-18.864-7.264-28.404-11.124
			c-87.606-35.191-180.243-79.637-175.764-91.002c3.454-8.765,70.698,9.513,148.154,37.294c0,0-0.472,0.566-1.058,1.373
			c-0.52,0.716-0.898,1.221-0.898,1.221c-50.051-17.423-97.979-28.72-100.651-21.94c-3.576,9.076,56.173,41.276,131.25,70.859
			C464.617,242.896,473.91,246.756,483.103,250.113z"/>
		<path fill="#7A7C7F" d="M481.385,249.478l-0.768,2.221c-9.309-3.494-18.692-7.207-28.134-11.037
			c-85.33-34.355-178.396-78.78-173.892-90.21c3.454-8.763,70.944,9.641,147.689,37.143c0,0-0.453,0.542-1.038,1.349
			c-0.519,0.717-0.879,1.205-0.879,1.205c-49.653-17.321-98.336-28.837-101.008-22.055c-3.576,9.074,55.77,41.13,130.148,70.438
			C463.089,242.308,472.277,246.158,481.385,249.478z"/>
		<path fill="#808285" d="M479.669,248.848l-0.749,2.146c-9.229-3.463-18.523-7.148-27.865-10.95
			c-83.051-33.517-176.547-77.925-172.02-89.416c3.454-8.765,71.192,9.767,147.225,36.988c0,0-0.436,0.521-1.017,1.328
			c-0.515,0.717-0.863,1.19-0.863,1.19c-49.253-17.219-98.688-28.955-101.36-22.173c-3.576,9.074,55.368,40.984,129.048,70.017
			C461.561,241.72,470.643,245.56,479.669,248.848z"/>
		<path fill="#86888A" d="M477.951,248.215l-0.727,2.072c-9.152-3.433-18.354-7.09-27.595-10.859
			c-80.777-32.681-174.702-77.072-170.148-88.625c3.454-8.766,71.438,9.894,146.76,36.836c0,0-0.417,0.497-0.997,1.305
			c-0.515,0.719-0.846,1.174-0.846,1.174c-48.856-17.118-99.041-29.07-101.713-22.292c-3.578,9.078,54.963,40.842,127.944,69.6
			C460.035,241.133,469.009,244.96,477.951,248.215z"/>
		<path fill="#8C8E90" d="M476.233,247.583l-0.706,2c-9.07-3.401-18.184-7.034-27.327-10.772
			c-78.499-31.844-172.851-76.217-168.275-87.833c3.454-8.765,71.686,10.021,146.296,36.682c0,0-0.397,0.475-0.978,1.284
			c-0.514,0.719-0.827,1.158-0.827,1.158c-48.46-17.015-99.398-29.187-102.068-22.407c-3.576,9.076,54.559,40.694,126.844,69.178
			C458.507,240.545,467.375,244.362,476.233,247.583z"/>
		<path fill="#929496" d="M474.515,246.951l-0.684,1.927c-8.995-3.369-18.014-6.972-27.061-10.684
			c-76.222-31.008-171.004-75.363-166.401-87.041c3.452-8.765,71.932,10.151,145.829,36.531c0,0-0.379,0.448-0.955,1.26
			c-0.512,0.721-0.81,1.142-0.81,1.142c-48.062-16.913-99.751-29.305-102.423-22.523c-3.576,9.077,54.157,40.548,125.741,68.759
			C456.979,239.958,465.744,243.764,474.515,246.951z"/>
		<path fill="#989A9C" d="M472.795,246.32l-0.662,1.854c-8.914-3.339-17.846-6.916-26.789-10.596
			c-73.944-30.171-169.157-74.507-164.53-86.25c3.454-8.763,72.18,10.279,145.367,36.377c0,0-0.364,0.427-0.938,1.239
			c-0.509,0.721-0.792,1.125-0.792,1.125c-47.663-16.809-100.105-29.421-102.776-22.64c-3.577,9.076,53.753,40.404,124.64,68.338
			C455.452,239.368,464.11,243.166,472.795,246.32z"/>
		<path fill="#9EA0A2" d="M471.079,245.686l-0.641,1.783c-8.836-3.31-17.676-6.859-26.521-10.509
			c-71.668-29.334-167.31-73.654-162.657-85.458c3.454-8.763,72.425,10.407,144.9,36.227c0,0-0.345,0.401-0.916,1.214
			c-0.507,0.721-0.774,1.109-0.774,1.109c-47.265-16.707-100.459-29.536-103.131-22.755c-3.575,9.074,53.35,40.259,123.538,67.917
			C453.923,238.78,462.476,242.566,471.079,245.686z"/>
		<path fill="#A4A6A9" d="M469.361,245.054l-0.62,1.709c-8.758-3.275-17.507-6.798-26.252-10.42
			c-69.393-28.498-165.462-72.799-160.786-84.664c3.454-8.767,72.673,10.533,144.438,36.071c0,0-0.327,0.38-0.897,1.193
			c-0.505,0.721-0.758,1.093-0.758,1.093c-46.867-16.604-100.813-29.653-103.484-22.873c-3.575,9.077,52.945,40.116,122.439,67.499
			C452.395,238.191,460.842,241.967,469.361,245.054z"/>
		<path fill="#AAACAF" d="M467.641,244.423l-0.598,1.634c-8.679-3.245-17.335-6.741-25.983-10.329
			c-67.113-27.663-163.614-71.945-158.914-83.876c3.456-8.763,72.92,10.661,143.973,35.921c0,0-0.31,0.356-0.876,1.171
			c-0.504,0.722-0.74,1.078-0.74,1.078c-46.468-16.503-101.166-29.769-103.837-22.991c-3.577,9.077,52.542,39.971,121.336,67.08
			C450.868,237.603,459.211,241.368,467.641,244.423z"/>
		<path fill="#B1B3B5" d="M465.925,243.792l-0.578,1.562c-8.6-3.215-17.167-6.682-25.714-10.243
			c-64.838-26.826-161.767-71.091-157.042-83.083c3.454-8.763,73.167,10.789,143.506,35.769c0,0-0.289,0.333-0.854,1.148
			c-0.502,0.724-0.721,1.062-0.721,1.062C378.45,173.605,323.001,160.118,320.33,166.9c-3.577,9.076,52.139,39.823,120.235,66.656
			C449.339,237.015,457.577,240.769,465.925,243.792z"/>
		<path fill="#B7B9BB" d="M464.208,243.159l-0.556,1.489c-8.522-3.183-16.999-6.624-25.446-10.154
			c-62.561-25.99-159.919-70.236-155.17-82.29c3.454-8.765,73.415,10.917,143.042,35.615c0,0-0.271,0.311-0.834,1.125
			c-0.499,0.724-0.704,1.046-0.704,1.046c-45.672-16.299-101.875-30.004-104.547-23.223c-3.577,9.076,51.735,39.679,119.134,66.235
			C447.812,236.427,455.943,240.171,464.208,243.159z"/>
		<path fill="#BDBFC1" d="M462.489,242.527l-0.534,1.415c-8.442-3.152-16.828-6.565-25.176-10.064
			c-60.283-25.153-158.073-69.382-153.298-81.499c3.452-8.765,73.661,11.045,142.578,35.461c0,0-0.254,0.288-0.814,1.104
			c-0.497,0.726-0.687,1.031-0.687,1.031c-45.275-16.199-102.229-30.122-104.901-23.343c-3.577,9.078,51.333,39.535,118.033,65.818
			C446.286,235.839,454.309,239.572,462.489,242.527z"/>
		<path fill="#C4C6C8" d="M460.773,241.894l-0.517,1.342c-8.362-3.12-16.657-6.506-24.907-9.978
			c-58.005-24.315-156.224-68.527-151.425-80.707c3.454-8.763,73.908,11.172,142.112,35.311c0,0-0.234,0.265-0.793,1.082
			c-0.495,0.726-0.669,1.015-0.669,1.015c-44.877-16.095-102.582-30.237-105.256-23.458c-3.577,9.076,50.931,39.389,116.933,65.397
			C444.757,235.251,452.676,238.973,460.773,241.894z"/>
		<path fill="#CBCCCE" d="M459.053,241.262l-0.492,1.269c-8.286-3.088-16.489-6.448-24.639-9.888
			c-55.73-23.48-154.378-67.672-149.554-79.913c3.454-8.767,74.154,11.297,141.65,35.155c0,0-0.218,0.241-0.774,1.059
			c-0.494,0.727-0.651,0.999-0.651,0.999c-44.479-15.992-102.938-30.354-105.61-23.574c-3.575,9.077,50.528,39.245,115.831,64.978
			C443.23,234.663,451.044,238.374,459.053,241.262z"/>
	</g>
	<path fill="#D1D3D4" d="M424.609,189.927c-44.08-15.89-103.29-30.471-105.96-23.691c-3.577,9.077,50.123,39.099,114.731,64.56
		c8.326,3.281,16.035,6.982,23.961,9.838l-0.471,1.195c-8.206-3.059-16.319-6.392-24.37-9.802
		c-53.463-22.646-152.537-66.82-147.689-79.125c3.452-8.765,74.399,11.427,141.187,35.005c0,0-0.201,0.217-0.755,1.036
		C424.751,189.671,424.609,189.927,424.609,189.927z"/>
	<g>
		<circle fill="#FFFFFF" cx="365.088" cy="258.308" r="8.388"/>
		<g>
			
				<ellipse transform="matrix(-0.9304 -0.3666 0.3666 -0.9304 610.131 632.5195)" fill="#F8F8F9" cx="365.127" cy="258.324" rx="8.346" ry="8.371"/>
			
				<ellipse transform="matrix(-0.9304 -0.3666 0.3666 -0.9304 610.1973 632.5646)" fill="#F3F4F4" cx="365.166" cy="258.339" rx="8.304" ry="8.352"/>
			<path fill="#EFF0F0" d="M357.516,255.324c1.688-4.283,6.498-6.397,10.744-4.725c4.245,1.673,6.318,6.501,4.632,10.784
				c-1.688,4.282-6.497,6.397-10.745,4.725C357.904,264.435,355.83,259.607,357.516,255.324z"/>
			
				<ellipse transform="matrix(-0.9304 -0.3666 0.3666 -0.9304 610.3502 632.6422)" fill="#EBECEC" cx="365.243" cy="258.37" rx="8.221" ry="8.317"/>
			
				<ellipse transform="matrix(-0.9304 -0.3666 0.3666 -0.9304 610.4032 632.6944)" fill="#E7E8E9" cx="365.281" cy="258.384" rx="8.18" ry="8.301"/>
			
				<ellipse transform="matrix(-0.9304 -0.3666 0.3666 -0.9304 610.4901 632.7268)" fill="#E2E3E5" cx="365.32" cy="258.4" rx="8.139" ry="8.282"/>
			<path fill="#DEDFE1" d="M357.828,255.447c1.672-4.247,6.4-6.361,10.562-4.722c4.16,1.641,6.178,6.411,4.503,10.658
				c-1.674,4.247-6.402,6.36-10.562,4.72C358.167,264.464,356.151,259.693,357.828,255.447z"/>
			
				<ellipse transform="matrix(-0.9304 -0.3667 0.3667 -0.9304 610.5869 632.8411)" fill="#DADBDD" cx="365.398" cy="258.43" rx="8.055" ry="8.247"/>
			<path fill="#D6D7D9" d="M357.979,255.508c1.667-4.231,6.355-6.343,10.474-4.719c4.118,1.621,6.106,6.365,4.439,10.594
				c-1.667,4.228-6.355,6.342-10.475,4.718C358.301,264.479,356.315,259.736,357.979,255.508z"/>
			
				<ellipse transform="matrix(-0.9304 -0.3666 0.3666 -0.9304 610.7476 632.913)" fill="#D2D3D5" cx="365.475" cy="258.46" rx="7.973" ry="8.212"/>
			
				<ellipse transform="matrix(-0.9304 -0.3666 0.3666 -0.9304 610.8063 632.9638)" fill="#CECFD1" cx="365.514" cy="258.476" rx="7.931" ry="8.195"/>
			
				<ellipse transform="matrix(-0.9304 -0.3666 0.3666 -0.9304 610.9012 632.9901)" fill="#CACBCD" cx="365.552" cy="258.491" rx="7.89" ry="8.178"/>
			
				<ellipse transform="matrix(-0.9304 -0.3666 0.3666 -0.9304 610.9459 633.0485)" fill="#C5C7C9" cx="365.59" cy="258.506" rx="7.848" ry="8.16"/>
			
				<ellipse transform="matrix(-0.9304 -0.3667 0.3667 -0.9304 611.0043 633.0996)" fill="#C1C3C5" cx="365.629" cy="258.521" rx="7.806" ry="8.142"/>
			
				<ellipse transform="matrix(-0.9304 -0.3666 0.3666 -0.9304 611.092 633.1315)" fill="#BDBFC1" cx="365.668" cy="258.537" rx="7.765" ry="8.124"/>
			
				<ellipse transform="matrix(-0.9304 -0.3667 0.3667 -0.9304 611.1439 633.1843)" fill="#B9BBBD" cx="365.706" cy="258.551" rx="7.724" ry="8.105"/>
			
				<ellipse transform="matrix(-0.9304 -0.3666 0.3666 -0.9304 611.246 633.2084)" fill="#B5B7B9" cx="365.745" cy="258.567" rx="7.682" ry="8.09"/>
			
				<ellipse transform="matrix(-0.9304 -0.3666 0.3666 -0.9304 611.29 633.2673)" fill="#B1B3B5" cx="365.784" cy="258.582" rx="7.64" ry="8.07"/>
			
				<ellipse transform="matrix(-0.9304 -0.3667 0.3667 -0.9304 611.348 633.3185)" fill="#ADAFB1" cx="365.823" cy="258.597" rx="7.599" ry="8.054"/>
			
				<ellipse transform="matrix(-0.9304 -0.3666 0.3666 -0.9304 611.4442 633.3441)" fill="#A8ABAD" cx="365.861" cy="258.613" rx="7.557" ry="8.036"/>
			
				<ellipse transform="matrix(-0.9304 -0.3666 0.3666 -0.9304 611.5022 633.3954)" fill="#A5A7A9" cx="365.9" cy="258.628" rx="7.516" ry="8.019"/>
			
				<ellipse transform="matrix(-0.9304 -0.3665 0.3665 -0.9304 611.6069 633.4146)" fill="#A1A3A5" cx="365.938" cy="258.644" rx="7.475" ry="8.003"/>
			
				<ellipse transform="matrix(-0.9304 -0.3666 0.3666 -0.9304 611.6422 633.4799)" fill="#9D9FA2" cx="365.977" cy="258.658" rx="7.433" ry="7.985"/>
			
				<ellipse transform="matrix(-0.9304 -0.3667 0.3667 -0.9304 611.6918 633.5375)" fill="#999B9E" cx="366.016" cy="258.673" rx="7.391" ry="7.967"/>
			
				<ellipse transform="matrix(-0.9304 -0.3667 0.3667 -0.9304 611.7657 633.5768)" fill="#95979A" cx="366.054" cy="258.688" rx="7.35" ry="7.949"/>
			
				<ellipse transform="matrix(-0.9303 -0.3667 0.3667 -0.9303 611.8167 633.6302)" fill="#919396" cx="366.092" cy="258.703" rx="7.309" ry="7.931"/>
			
				<ellipse transform="matrix(-0.9304 -0.3667 0.3667 -0.9304 611.8973 633.6676)" fill="#8D9092" cx="366.131" cy="258.719" rx="7.267" ry="7.913"/>
			
				<ellipse transform="matrix(-0.9303 -0.3667 0.3667 -0.9303 611.963 633.7131)" fill="#8A8C8E" cx="366.17" cy="258.734" rx="7.225" ry="7.897"/>
			
				<ellipse transform="matrix(-0.9304 -0.3667 0.3667 -0.9304 612.0438 633.7502)" fill="#86888B" cx="366.209" cy="258.75" rx="7.183" ry="7.879"/>
			
				<ellipse transform="matrix(-0.9304 -0.3666 0.3666 -0.9304 612.118 633.7894)" fill="#828487" cx="366.247" cy="258.765" rx="7.142" ry="7.861"/>
			
				<ellipse transform="matrix(-0.9303 -0.3667 0.3667 -0.9303 612.1514 633.856)" fill="#7F8183" cx="366.286" cy="258.779" rx="7.101" ry="7.843"/>
			
				<ellipse transform="matrix(-0.9304 -0.3666 0.3666 -0.9304 612.2581 633.8738)" fill="#7B7D7F" cx="366.324" cy="258.795" rx="7.06" ry="7.828"/>
			
				<ellipse transform="matrix(-0.9304 -0.3667 0.3667 -0.9304 612.3152 633.9258)" fill="#77797B" cx="366.363" cy="258.81" rx="7.018" ry="7.81"/>
			
				<ellipse transform="matrix(-0.9304 -0.3666 0.3666 -0.9304 612.3964 633.9626)" fill="#747578" cx="366.402" cy="258.826" rx="6.976" ry="7.791"/>
			
				<ellipse transform="matrix(-0.9304 -0.3666 0.3666 -0.9304 612.4619 634.0082)" fill="#707174" cx="366.44" cy="258.841" rx="6.935" ry="7.774"/>
			
				<ellipse transform="matrix(-0.9303 -0.3667 0.3667 -0.9303 612.5118 634.0624)" fill="#6C6D70" cx="366.479" cy="258.855" rx="6.894" ry="7.755"/>
			
				<ellipse transform="matrix(-0.9304 -0.3666 0.3666 -0.9304 612.618 634.0839)" fill="#68696B" cx="366.518" cy="258.872" rx="6.852" ry="7.74"/>
			
				<ellipse transform="matrix(-0.9304 -0.3666 0.3666 -0.9304 612.6677 634.1381)" fill="#646567" cx="366.556" cy="258.886" rx="6.811" ry="7.721"/>
			
				<ellipse transform="matrix(-0.9304 -0.3666 0.3666 -0.9304 612.7583 634.1681)" fill="#606163" cx="366.594" cy="258.902" rx="6.769" ry="7.705"/>
			
				<ellipse transform="matrix(-0.9303 -0.3667 0.3667 -0.9303 612.7646 634.2516)" fill="#5B5C5F" cx="366.633" cy="258.916" rx="6.728" ry="7.685"/>
			
				<ellipse transform="matrix(-0.9303 -0.3667 0.3667 -0.9303 612.8552 634.2816)" fill="#57585A" cx="366.672" cy="258.932" rx="6.686" ry="7.667"/>
			
				<ellipse transform="matrix(-0.9304 -0.3665 0.3665 -0.9304 612.9807 634.2887)" fill="#535355" cx="366.71" cy="258.948" rx="6.645" ry="7.651"/>
			
				<ellipse transform="matrix(-0.9304 -0.3666 0.3666 -0.9304 613.0115 634.3571)" fill="#4E4E50" cx="366.749" cy="258.962" rx="6.603" ry="7.635"/>
			
				<ellipse transform="matrix(-0.9303 -0.3667 0.3667 -0.9303 613.0677 634.4095)" fill="#4A4A4C" cx="366.788" cy="258.978" rx="6.561" ry="7.616"/>
			
				<ellipse transform="matrix(-0.9304 -0.3666 0.3666 -0.9304 613.1778 634.4252)" fill="#454547" cx="366.826" cy="258.993" rx="6.52" ry="7.599"/>
			
				<ellipse transform="matrix(-0.9303 -0.3667 0.3667 -0.9303 613.189 634.508)" fill="#404041" cx="366.866" cy="259.008" rx="6.478" ry="7.58"/>
			
				<ellipse transform="matrix(-0.9304 -0.3666 0.3666 -0.9304 613.3163 634.5139)" fill="#373738" cx="366.904" cy="259.024" rx="6.436" ry="7.564"/>
			
				<ellipse transform="matrix(-0.9304 -0.3666 0.3666 -0.9304 613.3745 634.5618)" fill="#2D2D2E" cx="366.941" cy="259.039" rx="6.396" ry="7.545"/>
			
				<ellipse transform="matrix(-0.9304 -0.3666 0.3666 -0.9304 613.4303 634.6146)" fill="#222122" cx="366.98" cy="259.054" rx="6.354" ry="7.528"/>
			<path fill="#131314" d="M361.145,256.753c1.522-3.856,5.386-5.95,8.627-4.671c3.245,1.275,4.641,5.44,3.12,9.301
				c-1.521,3.86-5.384,5.952-8.625,4.675C361.022,264.779,359.625,260.616,361.145,256.753z"/>
		</g>
		
			<ellipse transform="matrix(-0.9304 -0.3666 0.3666 -0.9304 613.5782 634.6963)" cx="367.058" cy="259.084" rx="6.271" ry="7.494"/>
	</g>
</g>
</svg>
